<svg width="170" height="80" viewBox="0 0 170 80" fill="none" xmlns="http://www.w3.org/2000/svg">
<path d="M24.76 58.06C24.92 58.06 25.065 58.125 25.195 58.255L26.335 59.5C25.455 60.52 24.385 61.315 23.125 61.885C21.875 62.455 20.365 62.74 18.595 62.74C17.045 62.74 15.64 62.475 14.38 61.945C13.12 61.405 12.045 60.655 11.155 59.695C10.265 58.725 9.575 57.565 9.085 56.215C8.595 54.865 8.35 53.38 8.35 51.76C8.35 50.14 8.61 48.655 9.13 47.305C9.66 45.955 10.4 44.795 11.35 43.825C12.3 42.855 13.435 42.105 14.755 41.575C16.085 41.035 17.55 40.765 19.15 40.765C20.73 40.765 22.09 41.01 23.23 41.5C24.38 41.99 25.4 42.655 26.29 43.495L25.345 44.83C25.275 44.93 25.195 45.015 25.105 45.085C25.015 45.145 24.885 45.175 24.715 45.175C24.585 45.175 24.445 45.13 24.295 45.04C24.155 44.94 23.985 44.82 23.785 44.68C23.585 44.54 23.35 44.39 23.08 44.23C22.81 44.07 22.49 43.92 22.12 43.78C21.75 43.64 21.32 43.525 20.83 43.435C20.34 43.335 19.775 43.285 19.135 43.285C17.985 43.285 16.93 43.485 15.97 43.885C15.02 44.275 14.2 44.835 13.51 45.565C12.82 46.295 12.28 47.185 11.89 48.235C11.51 49.285 11.32 50.46 11.32 51.76C11.32 53.1 11.51 54.295 11.89 55.345C12.28 56.395 12.805 57.285 13.465 58.015C14.135 58.735 14.925 59.285 15.835 59.665C16.745 60.045 17.725 60.235 18.775 60.235C19.415 60.235 19.99 60.2 20.5 60.13C21.01 60.05 21.48 59.93 21.91 59.77C22.35 59.61 22.755 59.41 23.125 59.17C23.505 58.92 23.885 58.625 24.265 58.285C24.435 58.135 24.6 58.06 24.76 58.06ZM40.8871 62.5H39.7021C39.4421 62.5 39.2321 62.46 39.0721 62.38C38.9121 62.3 38.8071 62.13 38.7571 61.87L38.4571 60.46C38.0571 60.82 37.6671 61.145 37.2871 61.435C36.9071 61.715 36.5071 61.955 36.0871 62.155C35.6671 62.345 35.2171 62.49 34.7371 62.59C34.2671 62.69 33.7421 62.74 33.1621 62.74C32.5721 62.74 32.0171 62.66 31.4971 62.5C30.9871 62.33 30.5421 62.08 30.1621 61.75C29.7821 61.42 29.4771 61.005 29.2471 60.505C29.0271 59.995 28.9171 59.395 28.9171 58.705C28.9171 58.105 29.0821 57.53 29.4121 56.98C29.7421 56.42 30.2721 55.925 31.0021 55.495C31.7421 55.065 32.7071 54.715 33.8971 54.445C35.0871 54.165 36.5421 54.005 38.2621 53.965V52.78C38.2621 51.6 38.0071 50.71 37.4971 50.11C36.9971 49.5 36.2521 49.195 35.2621 49.195C34.6121 49.195 34.0621 49.28 33.6121 49.45C33.1721 49.61 32.7871 49.795 32.4571 50.005C32.1371 50.205 31.8571 50.39 31.6171 50.56C31.3871 50.72 31.1571 50.8 30.9271 50.8C30.7471 50.8 30.5871 50.755 30.4471 50.665C30.3171 50.565 30.2121 50.445 30.1321 50.305L29.6521 49.45C30.4921 48.64 31.3971 48.035 32.3671 47.635C33.3371 47.235 34.4121 47.035 35.5921 47.035C36.4421 47.035 37.1971 47.175 37.8571 47.455C38.5171 47.735 39.0721 48.125 39.5221 48.625C39.9721 49.125 40.3121 49.73 40.5421 50.44C40.7721 51.15 40.8871 51.93 40.8871 52.78V62.5ZM33.9571 60.865C34.4271 60.865 34.8571 60.82 35.2471 60.73C35.6371 60.63 36.0021 60.495 36.3421 60.325C36.6921 60.145 37.0221 59.93 37.3321 59.68C37.6521 59.43 37.9621 59.145 38.2621 58.825V55.66C37.0321 55.7 35.9871 55.8 35.1271 55.96C34.2671 56.11 33.5671 56.31 33.0271 56.56C32.4871 56.81 32.0921 57.105 31.8421 57.445C31.6021 57.785 31.4821 58.165 31.4821 58.585C31.4821 58.985 31.5471 59.33 31.6771 59.62C31.8071 59.91 31.9821 60.15 32.2021 60.34C32.4221 60.52 32.6821 60.655 32.9821 60.745C33.2821 60.825 33.6071 60.865 33.9571 60.865ZM44.9322 62.5V47.305H46.4622C46.7522 47.305 46.9522 47.36 47.0622 47.47C47.1722 47.58 47.2472 47.77 47.2872 48.04L47.4672 50.41C47.9872 49.35 48.6272 48.525 49.3872 47.935C50.1572 47.335 51.0572 47.035 52.0872 47.035C52.5072 47.035 52.8872 47.085 53.2272 47.185C53.5672 47.275 53.8822 47.405 54.1722 47.575L53.8272 49.57C53.7572 49.82 53.6022 49.945 53.3622 49.945C53.2222 49.945 53.0072 49.9 52.7172 49.81C52.4272 49.71 52.0222 49.66 51.5022 49.66C50.5722 49.66 49.7922 49.93 49.1622 50.47C48.5422 51.01 48.0222 51.795 47.6022 52.825V62.5H44.9322ZM63.0468 47.065C63.9568 47.065 64.7968 47.22 65.5668 47.53C66.3368 47.83 67.0018 48.27 67.5618 48.85C68.1218 49.42 68.5568 50.13 68.8668 50.98C69.1868 51.82 69.3468 52.78 69.3468 53.86C69.3468 54.28 69.3018 54.56 69.2118 54.7C69.1218 54.84 68.9518 54.91 68.7018 54.91H58.5918C58.6118 55.87 58.7418 56.705 58.9818 57.415C59.2218 58.125 59.5518 58.72 59.9718 59.2C60.3918 59.67 60.8918 60.025 61.4718 60.265C62.0518 60.495 62.7018 60.61 63.4218 60.61C64.0918 60.61 64.6668 60.535 65.1468 60.385C65.6368 60.225 66.0568 60.055 66.4068 59.875C66.7568 59.695 67.0468 59.53 67.2768 59.38C67.5168 59.22 67.7218 59.14 67.8918 59.14C68.1118 59.14 68.2818 59.225 68.4018 59.395L69.1518 60.37C68.8218 60.77 68.4268 61.12 67.9668 61.42C67.5068 61.71 67.0118 61.95 66.4818 62.14C65.9618 62.33 65.4218 62.47 64.8618 62.56C64.3018 62.66 63.7468 62.71 63.1968 62.71C62.1468 62.71 61.1768 62.535 60.2868 62.185C59.4068 61.825 58.6418 61.305 57.9918 60.625C57.3518 59.935 56.8518 59.085 56.4918 58.075C56.1318 57.065 55.9518 55.905 55.9518 54.595C55.9518 53.535 56.1118 52.545 56.4318 51.625C56.7618 50.705 57.2318 49.91 57.8418 49.24C58.4518 48.56 59.1968 48.03 60.0768 47.65C60.9568 47.26 61.9468 47.065 63.0468 47.065ZM63.1068 49.03C61.8168 49.03 60.8018 49.405 60.0618 50.155C59.3218 50.895 58.8618 51.925 58.6818 53.245H66.9468C66.9468 52.625 66.8618 52.06 66.6918 51.55C66.5218 51.03 66.2718 50.585 65.9418 50.215C65.6118 49.835 65.2068 49.545 64.7268 49.345C64.2568 49.135 63.7168 49.03 63.1068 49.03Z" fill="black"/>
<path d="M101.76 58.06C101.92 58.06 102.065 58.125 102.195 58.255L103.335 59.5C102.455 60.52 101.385 61.315 100.125 61.885C98.875 62.455 97.365 62.74 95.595 62.74C94.045 62.74 92.64 62.475 91.38 61.945C90.12 61.405 89.045 60.655 88.155 59.695C87.265 58.725 86.575 57.565 86.085 56.215C85.595 54.865 85.35 53.38 85.35 51.76C85.35 50.14 85.61 48.655 86.13 47.305C86.66 45.955 87.4 44.795 88.35 43.825C89.3 42.855 90.435 42.105 91.755 41.575C93.085 41.035 94.55 40.765 96.15 40.765C97.73 40.765 99.09 41.01 100.23 41.5C101.38 41.99 102.4 42.655 103.29 43.495L102.345 44.83C102.275 44.93 102.195 45.015 102.105 45.085C102.015 45.145 101.885 45.175 101.715 45.175C101.585 45.175 101.445 45.13 101.295 45.04C101.155 44.94 100.985 44.82 100.785 44.68C100.585 44.54 100.35 44.39 100.08 44.23C99.81 44.07 99.49 43.92 99.12 43.78C98.75 43.64 98.32 43.525 97.83 43.435C97.34 43.335 96.775 43.285 96.135 43.285C94.985 43.285 93.93 43.485 92.97 43.885C92.02 44.275 91.2 44.835 90.51 45.565C89.82 46.295 89.28 47.185 88.89 48.235C88.51 49.285 88.32 50.46 88.32 51.76C88.32 53.1 88.51 54.295 88.89 55.345C89.28 56.395 89.805 57.285 90.465 58.015C91.135 58.735 91.925 59.285 92.835 59.665C93.745 60.045 94.725 60.235 95.775 60.235C96.415 60.235 96.99 60.2 97.5 60.13C98.01 60.05 98.48 59.93 98.91 59.77C99.35 59.61 99.755 59.41 100.125 59.17C100.505 58.92 100.885 58.625 101.265 58.285C101.435 58.135 101.6 58.06 101.76 58.06ZM109.697 40.405V62.5H107.027V40.405H109.697ZM120.553 47.065C121.663 47.065 122.663 47.25 123.553 47.62C124.453 47.99 125.213 48.515 125.833 49.195C126.463 49.875 126.943 50.7 127.273 51.67C127.613 52.63 127.783 53.705 127.783 54.895C127.783 56.095 127.613 57.175 127.273 58.135C126.943 59.095 126.463 59.915 125.833 60.595C125.213 61.275 124.453 61.8 123.553 62.17C122.663 62.53 121.663 62.71 120.553 62.71C119.443 62.71 118.438 62.53 117.538 62.17C116.648 61.8 115.888 61.275 115.258 60.595C114.628 59.915 114.143 59.095 113.803 58.135C113.463 57.175 113.293 56.095 113.293 54.895C113.293 53.705 113.463 52.63 113.803 51.67C114.143 50.7 114.628 49.875 115.258 49.195C115.888 48.515 116.648 47.99 117.538 47.62C118.438 47.25 119.443 47.065 120.553 47.065ZM120.553 60.625C122.053 60.625 123.173 60.125 123.913 59.125C124.653 58.115 125.023 56.71 125.023 54.91C125.023 53.1 124.653 51.69 123.913 50.68C123.173 49.67 122.053 49.165 120.553 49.165C119.793 49.165 119.133 49.295 118.573 49.555C118.013 49.815 117.543 50.19 117.163 50.68C116.793 51.17 116.513 51.775 116.323 52.495C116.143 53.205 116.053 54.01 116.053 54.91C116.053 55.81 116.143 56.615 116.323 57.325C116.513 58.035 116.793 58.635 117.163 59.125C117.543 59.605 118.013 59.975 118.573 60.235C119.133 60.495 119.793 60.625 120.553 60.625ZM133.383 47.305V56.995C133.383 58.145 133.648 59.035 134.178 59.665C134.708 60.295 135.508 60.61 136.578 60.61C137.358 60.61 138.093 60.425 138.783 60.055C139.473 59.685 140.108 59.17 140.688 58.51V47.305H143.358V62.5H141.768C141.388 62.5 141.148 62.315 141.048 61.945L140.838 60.31C140.178 61.04 139.438 61.63 138.618 62.08C137.798 62.52 136.858 62.74 135.798 62.74C134.968 62.74 134.233 62.605 133.593 62.335C132.963 62.055 132.433 61.665 132.003 61.165C131.573 60.665 131.248 60.06 131.028 59.35C130.818 58.64 130.713 57.855 130.713 56.995V47.305H133.383ZM158.438 62.5C158.058 62.5 157.818 62.315 157.718 61.945L157.478 60.1C156.828 60.89 156.083 61.525 155.243 62.005C154.413 62.475 153.458 62.71 152.378 62.71C151.508 62.71 150.718 62.545 150.008 62.215C149.298 61.875 148.693 61.38 148.193 60.73C147.693 60.08 147.308 59.27 147.038 58.3C146.768 57.33 146.633 56.215 146.633 54.955C146.633 53.835 146.783 52.795 147.083 51.835C147.383 50.865 147.813 50.025 148.373 49.315C148.943 48.605 149.633 48.05 150.443 47.65C151.253 47.24 152.173 47.035 153.203 47.035C154.133 47.035 154.928 47.195 155.588 47.515C156.248 47.825 156.838 48.265 157.358 48.835V40.405H160.028V62.5H158.438ZM153.263 60.55C154.133 60.55 154.893 60.35 155.543 59.95C156.203 59.55 156.808 58.985 157.358 58.255V50.905C156.868 50.245 156.328 49.785 155.738 49.525C155.158 49.255 154.513 49.12 153.803 49.12C152.383 49.12 151.293 49.625 150.533 50.635C149.773 51.645 149.393 53.085 149.393 54.955C149.393 55.945 149.478 56.795 149.648 57.505C149.818 58.205 150.068 58.785 150.398 59.245C150.728 59.695 151.133 60.025 151.613 60.235C152.093 60.445 152.643 60.55 153.263 60.55Z" fill="black"/>
<path d="M29.5 41H74L78 73L84.5 7L89.5 36H158.5" stroke="#2F44B2" stroke-width="2"/>
<rect x="0.5" y="0.5" width="169" height="79" stroke="black"/>
</svg>
