<svg width="170" height="80" viewBox="0 0 170 80" fill="none" xmlns="http://www.w3.org/2000/svg">
<path d="M26.76 37.56C26.92 37.56 27.065 37.625 27.195 37.755L28.335 39C27.455 40.02 26.385 40.815 25.125 41.385C23.875 41.955 22.365 42.24 20.595 42.24C19.045 42.24 17.64 41.975 16.38 41.445C15.12 40.905 14.045 40.155 13.155 39.195C12.265 38.225 11.575 37.065 11.085 35.715C10.595 34.365 10.35 32.88 10.35 31.26C10.35 29.64 10.61 28.155 11.13 26.805C11.66 25.455 12.4 24.295 13.35 23.325C14.3 22.355 15.435 21.605 16.755 21.075C18.085 20.535 19.55 20.265 21.15 20.265C22.73 20.265 24.09 20.51 25.23 21C26.38 21.49 27.4 22.155 28.29 22.995L27.345 24.33C27.275 24.43 27.195 24.515 27.105 24.585C27.015 24.645 26.885 24.675 26.715 24.675C26.585 24.675 26.445 24.63 26.295 24.54C26.155 24.44 25.985 24.32 25.785 24.18C25.585 24.04 25.35 23.89 25.08 23.73C24.81 23.57 24.49 23.42 24.12 23.28C23.75 23.14 23.32 23.025 22.83 22.935C22.34 22.835 21.775 22.785 21.135 22.785C19.985 22.785 18.93 22.985 17.97 23.385C17.02 23.775 16.2 24.335 15.51 25.065C14.82 25.795 14.28 26.685 13.89 27.735C13.51 28.785 13.32 29.96 13.32 31.26C13.32 32.6 13.51 33.795 13.89 34.845C14.28 35.895 14.805 36.785 15.465 37.515C16.135 38.235 16.925 38.785 17.835 39.165C18.745 39.545 19.725 39.735 20.775 39.735C21.415 39.735 21.99 39.7 22.5 39.63C23.01 39.55 23.48 39.43 23.91 39.27C24.35 39.11 24.755 38.91 25.125 38.67C25.505 38.42 25.885 38.125 26.265 37.785C26.435 37.635 26.6 37.56 26.76 37.56ZM42.8871 42H41.7021C41.4421 42 41.2321 41.96 41.0721 41.88C40.9121 41.8 40.8071 41.63 40.7571 41.37L40.4571 39.96C40.0571 40.32 39.6671 40.645 39.2871 40.935C38.9071 41.215 38.5071 41.455 38.0871 41.655C37.6671 41.845 37.2171 41.99 36.7371 42.09C36.2671 42.19 35.7421 42.24 35.1621 42.24C34.5721 42.24 34.0171 42.16 33.4971 42C32.9871 41.83 32.5421 41.58 32.1621 41.25C31.7821 40.92 31.4771 40.505 31.2471 40.005C31.0271 39.495 30.9171 38.895 30.9171 38.205C30.9171 37.605 31.0821 37.03 31.4121 36.48C31.7421 35.92 32.2721 35.425 33.0021 34.995C33.7421 34.565 34.7071 34.215 35.8971 33.945C37.0871 33.665 38.5421 33.505 40.2621 33.465V32.28C40.2621 31.1 40.0071 30.21 39.4971 29.61C38.9971 29 38.2521 28.695 37.2621 28.695C36.6121 28.695 36.0621 28.78 35.6121 28.95C35.1721 29.11 34.7871 29.295 34.4571 29.505C34.1371 29.705 33.8571 29.89 33.6171 30.06C33.3871 30.22 33.1571 30.3 32.9271 30.3C32.7471 30.3 32.5871 30.255 32.4471 30.165C32.3171 30.065 32.2121 29.945 32.1321 29.805L31.6521 28.95C32.4921 28.14 33.3971 27.535 34.3671 27.135C35.3371 26.735 36.4121 26.535 37.5921 26.535C38.4421 26.535 39.1971 26.675 39.8571 26.955C40.5171 27.235 41.0721 27.625 41.5221 28.125C41.9721 28.625 42.3121 29.23 42.5421 29.94C42.7721 30.65 42.8871 31.43 42.8871 32.28V42ZM35.9571 40.365C36.4271 40.365 36.8571 40.32 37.2471 40.23C37.6371 40.13 38.0021 39.995 38.3421 39.825C38.6921 39.645 39.0221 39.43 39.3321 39.18C39.6521 38.93 39.9621 38.645 40.2621 38.325V35.16C39.0321 35.2 37.9871 35.3 37.1271 35.46C36.2671 35.61 35.5671 35.81 35.0271 36.06C34.4871 36.31 34.0921 36.605 33.8421 36.945C33.6021 37.285 33.4821 37.665 33.4821 38.085C33.4821 38.485 33.5471 38.83 33.6771 39.12C33.8071 39.41 33.9821 39.65 34.2021 39.84C34.4221 40.02 34.6821 40.155 34.9821 40.245C35.2821 40.325 35.6071 40.365 35.9571 40.365ZM46.9322 42V26.805H48.4622C48.7522 26.805 48.9522 26.86 49.0622 26.97C49.1722 27.08 49.2472 27.27 49.2872 27.54L49.4672 29.91C49.9872 28.85 50.6272 28.025 51.3872 27.435C52.1572 26.835 53.0572 26.535 54.0872 26.535C54.5072 26.535 54.8872 26.585 55.2272 26.685C55.5672 26.775 55.8822 26.905 56.1722 27.075L55.8272 29.07C55.7572 29.32 55.6022 29.445 55.3622 29.445C55.2222 29.445 55.0072 29.4 54.7172 29.31C54.4272 29.21 54.0222 29.16 53.5022 29.16C52.5722 29.16 51.7922 29.43 51.1622 29.97C50.5422 30.51 50.0222 31.295 49.6022 32.325V42H46.9322ZM65.0468 26.565C65.9568 26.565 66.7968 26.72 67.5668 27.03C68.3368 27.33 69.0018 27.77 69.5618 28.35C70.1218 28.92 70.5568 29.63 70.8668 30.48C71.1868 31.32 71.3468 32.28 71.3468 33.36C71.3468 33.78 71.3018 34.06 71.2118 34.2C71.1218 34.34 70.9518 34.41 70.7018 34.41H60.5918C60.6118 35.37 60.7418 36.205 60.9818 36.915C61.2218 37.625 61.5518 38.22 61.9718 38.7C62.3918 39.17 62.8918 39.525 63.4718 39.765C64.0518 39.995 64.7018 40.11 65.4218 40.11C66.0918 40.11 66.6668 40.035 67.1468 39.885C67.6368 39.725 68.0568 39.555 68.4068 39.375C68.7568 39.195 69.0468 39.03 69.2768 38.88C69.5168 38.72 69.7218 38.64 69.8918 38.64C70.1118 38.64 70.2818 38.725 70.4018 38.895L71.1518 39.87C70.8218 40.27 70.4268 40.62 69.9668 40.92C69.5068 41.21 69.0118 41.45 68.4818 41.64C67.9618 41.83 67.4218 41.97 66.8618 42.06C66.3018 42.16 65.7468 42.21 65.1968 42.21C64.1468 42.21 63.1768 42.035 62.2868 41.685C61.4068 41.325 60.6418 40.805 59.9918 40.125C59.3518 39.435 58.8518 38.585 58.4918 37.575C58.1318 36.565 57.9518 35.405 57.9518 34.095C57.9518 33.035 58.1118 32.045 58.4318 31.125C58.7618 30.205 59.2318 29.41 59.8418 28.74C60.4518 28.06 61.1968 27.53 62.0768 27.15C62.9568 26.76 63.9468 26.565 65.0468 26.565ZM65.1068 28.53C63.8168 28.53 62.8018 28.905 62.0618 29.655C61.3218 30.395 60.8618 31.425 60.6818 32.745H68.9468C68.9468 32.125 68.8618 31.56 68.6918 31.05C68.5218 30.53 68.2718 30.085 67.9418 29.715C67.6118 29.335 67.2068 29.045 66.7268 28.845C66.2568 28.635 65.7168 28.53 65.1068 28.53Z" fill="black"/>
<path d="M99.76 37.56C99.92 37.56 100.065 37.625 100.195 37.755L101.335 39C100.455 40.02 99.385 40.815 98.125 41.385C96.875 41.955 95.365 42.24 93.595 42.24C92.045 42.24 90.64 41.975 89.38 41.445C88.12 40.905 87.045 40.155 86.155 39.195C85.265 38.225 84.575 37.065 84.085 35.715C83.595 34.365 83.35 32.88 83.35 31.26C83.35 29.64 83.61 28.155 84.13 26.805C84.66 25.455 85.4 24.295 86.35 23.325C87.3 22.355 88.435 21.605 89.755 21.075C91.085 20.535 92.55 20.265 94.15 20.265C95.73 20.265 97.09 20.51 98.23 21C99.38 21.49 100.4 22.155 101.29 22.995L100.345 24.33C100.275 24.43 100.195 24.515 100.105 24.585C100.015 24.645 99.885 24.675 99.715 24.675C99.585 24.675 99.445 24.63 99.295 24.54C99.155 24.44 98.985 24.32 98.785 24.18C98.585 24.04 98.35 23.89 98.08 23.73C97.81 23.57 97.49 23.42 97.12 23.28C96.75 23.14 96.32 23.025 95.83 22.935C95.34 22.835 94.775 22.785 94.135 22.785C92.985 22.785 91.93 22.985 90.97 23.385C90.02 23.775 89.2 24.335 88.51 25.065C87.82 25.795 87.28 26.685 86.89 27.735C86.51 28.785 86.32 29.96 86.32 31.26C86.32 32.6 86.51 33.795 86.89 34.845C87.28 35.895 87.805 36.785 88.465 37.515C89.135 38.235 89.925 38.785 90.835 39.165C91.745 39.545 92.725 39.735 93.775 39.735C94.415 39.735 94.99 39.7 95.5 39.63C96.01 39.55 96.48 39.43 96.91 39.27C97.35 39.11 97.755 38.91 98.125 38.67C98.505 38.42 98.885 38.125 99.265 37.785C99.435 37.635 99.6 37.56 99.76 37.56ZM107.697 19.905V42H105.027V19.905H107.697ZM118.553 26.565C119.663 26.565 120.663 26.75 121.553 27.12C122.453 27.49 123.213 28.015 123.833 28.695C124.463 29.375 124.943 30.2 125.273 31.17C125.613 32.13 125.783 33.205 125.783 34.395C125.783 35.595 125.613 36.675 125.273 37.635C124.943 38.595 124.463 39.415 123.833 40.095C123.213 40.775 122.453 41.3 121.553 41.67C120.663 42.03 119.663 42.21 118.553 42.21C117.443 42.21 116.438 42.03 115.538 41.67C114.648 41.3 113.888 40.775 113.258 40.095C112.628 39.415 112.143 38.595 111.803 37.635C111.463 36.675 111.293 35.595 111.293 34.395C111.293 33.205 111.463 32.13 111.803 31.17C112.143 30.2 112.628 29.375 113.258 28.695C113.888 28.015 114.648 27.49 115.538 27.12C116.438 26.75 117.443 26.565 118.553 26.565ZM118.553 40.125C120.053 40.125 121.173 39.625 121.913 38.625C122.653 37.615 123.023 36.21 123.023 34.41C123.023 32.6 122.653 31.19 121.913 30.18C121.173 29.17 120.053 28.665 118.553 28.665C117.793 28.665 117.133 28.795 116.573 29.055C116.013 29.315 115.543 29.69 115.163 30.18C114.793 30.67 114.513 31.275 114.323 31.995C114.143 32.705 114.053 33.51 114.053 34.41C114.053 35.31 114.143 36.115 114.323 36.825C114.513 37.535 114.793 38.135 115.163 38.625C115.543 39.105 116.013 39.475 116.573 39.735C117.133 39.995 117.793 40.125 118.553 40.125ZM131.383 26.805V36.495C131.383 37.645 131.648 38.535 132.178 39.165C132.708 39.795 133.508 40.11 134.578 40.11C135.358 40.11 136.093 39.925 136.783 39.555C137.473 39.185 138.108 38.67 138.688 38.01V26.805H141.358V42H139.768C139.388 42 139.148 41.815 139.048 41.445L138.838 39.81C138.178 40.54 137.438 41.13 136.618 41.58C135.798 42.02 134.858 42.24 133.798 42.24C132.968 42.24 132.233 42.105 131.593 41.835C130.963 41.555 130.433 41.165 130.003 40.665C129.573 40.165 129.248 39.56 129.028 38.85C128.818 38.14 128.713 37.355 128.713 36.495V26.805H131.383ZM156.438 42C156.058 42 155.818 41.815 155.718 41.445L155.478 39.6C154.828 40.39 154.083 41.025 153.243 41.505C152.413 41.975 151.458 42.21 150.378 42.21C149.508 42.21 148.718 42.045 148.008 41.715C147.298 41.375 146.693 40.88 146.193 40.23C145.693 39.58 145.308 38.77 145.038 37.8C144.768 36.83 144.633 35.715 144.633 34.455C144.633 33.335 144.783 32.295 145.083 31.335C145.383 30.365 145.813 29.525 146.373 28.815C146.943 28.105 147.633 27.55 148.443 27.15C149.253 26.74 150.173 26.535 151.203 26.535C152.133 26.535 152.928 26.695 153.588 27.015C154.248 27.325 154.838 27.765 155.358 28.335V19.905H158.028V42H156.438ZM151.263 40.05C152.133 40.05 152.893 39.85 153.543 39.45C154.203 39.05 154.808 38.485 155.358 37.755V30.405C154.868 29.745 154.328 29.285 153.738 29.025C153.158 28.755 152.513 28.62 151.803 28.62C150.383 28.62 149.293 29.125 148.533 30.135C147.773 31.145 147.393 32.585 147.393 34.455C147.393 35.445 147.478 36.295 147.648 37.005C147.818 37.705 148.068 38.285 148.398 38.745C148.728 39.195 149.133 39.525 149.613 39.735C150.093 39.945 150.643 40.05 151.263 40.05Z" fill="black"/>
<path d="M13 47.9788H68.5847L73.0339 69.4301L77.5 23L81.5 47.9788H158" stroke="#2F44B2" stroke-width="2"/>
<rect x="0.5" y="0.5" width="169" height="79" stroke="black"/>
</svg>
