<svg width="310" height="76" viewBox="0 0 310 76" fill="none" xmlns="http://www.w3.org/2000/svg">
<path d="M37.4643 1.79097L65.387 21.2998L63.3609 57.2155L33.4121 73.6224L5.48939 54.1135L7.51551 18.1978L37.4643 1.79097Z" fill="#000C4C"/>
<path d="M46.1617 4.95789L74.5362 23.2092L72.6754 56.5374L42.4401 71.6143L14.0656 53.3631L15.9264 20.0348L46.1617 4.95789Z" fill="#7A306C"/>
<path d="M51.2999 7.26267L74.7315 22.4104L73.1864 50.0841L48.2098 62.61L24.7782 47.4622L26.3233 19.7886L51.2999 7.26267Z" fill="white"/>
<path d="M50.52 27.14C49.88 26.28 49.09 25.64 48.15 25.22C47.21 24.78 46.23 24.56 45.21 24.56C44.03 24.56 42.94 24.8 41.94 25.28C40.96 25.76 40.11 26.41 39.39 27.23C38.67 28.03 38.11 28.97 37.71 30.05C37.31 31.11 37.11 32.22 37.11 33.38C37.11 34.62 37.31 35.78 37.71 36.86C38.11 37.92 38.66 38.85 39.36 39.65C40.08 40.43 40.93 41.05 41.91 41.51C42.91 41.97 44.01 42.2 45.21 42.2C46.51 42.2 47.67 41.95 48.69 41.45C49.71 40.93 50.6 40.19 51.36 39.23L53.25 40.82C52.29 42.1 51.13 43.04 49.77 43.64C48.43 44.24 46.91 44.54 45.21 44.54C43.69 44.54 42.27 44.26 40.95 43.7C39.63 43.14 38.48 42.37 37.5 41.39C36.54 40.39 35.78 39.21 35.22 37.85C34.68 36.49 34.41 35 34.41 33.38C34.41 31.82 34.67 30.36 35.19 29C35.73 27.64 36.48 26.46 37.44 25.46C38.4 24.46 39.54 23.67 40.86 23.09C42.18 22.51 43.63 22.22 45.21 22.22C46.65 22.22 48.03 22.48 49.35 23C50.69 23.52 51.81 24.37 52.71 25.55L50.52 27.14ZM56.343 21.32H58.683V31.91H58.743C58.903 31.63 59.123 31.36 59.403 31.1C59.683 30.82 60.013 30.57 60.393 30.35C60.793 30.13 61.233 29.95 61.713 29.81C62.193 29.67 62.703 29.6 63.243 29.6C64.163 29.6 64.953 29.74 65.613 30.02C66.293 30.3 66.853 30.69 67.293 31.19C67.733 31.69 68.053 32.3 68.253 33.02C68.473 33.72 68.583 34.49 68.583 35.33V44H66.243V35.57C66.243 34.39 65.983 33.46 65.463 32.78C64.943 32.1 64.133 31.76 63.033 31.76C62.273 31.76 61.613 31.89 61.053 32.15C60.513 32.41 60.063 32.78 59.703 33.26C59.363 33.74 59.103 34.31 58.923 34.97C58.763 35.63 58.683 36.36 58.683 37.16V44H56.343V21.32ZM73.013 33.29C73.013 32.65 72.993 32.05 72.953 31.49C72.913 30.93 72.893 30.42 72.893 29.96H75.113C75.113 30.34 75.123 30.72 75.143 31.1C75.163 31.48 75.173 31.87 75.173 32.27H75.233C75.393 31.93 75.613 31.6 75.893 31.28C76.193 30.96 76.543 30.68 76.943 30.44C77.343 30.18 77.793 29.98 78.293 29.84C78.793 29.68 79.333 29.6 79.913 29.6C80.073 29.6 80.233 29.61 80.393 29.63C80.553 29.65 80.713 29.69 80.873 29.75L80.723 32.12C80.323 32 79.903 31.94 79.463 31.94C78.023 31.94 76.973 32.41 76.313 33.35C75.673 34.27 75.353 35.54 75.353 37.16V44H73.013V33.29ZM83.7698 29.96H86.1098V44H83.7698V29.96ZM83.2298 24.47C83.2298 24.01 83.3898 23.61 83.7098 23.27C84.0498 22.93 84.4598 22.76 84.9398 22.76C85.4198 22.76 85.8198 22.93 86.1398 23.27C86.4798 23.61 86.6498 24.01 86.6498 24.47C86.6498 24.97 86.4898 25.38 86.1698 25.7C85.8498 26.02 85.4398 26.18 84.9398 26.18C84.4398 26.18 84.0298 26.02 83.7098 25.7C83.3898 25.38 83.2298 24.97 83.2298 24.47ZM91.0669 40.31C91.5269 40.89 92.0269 41.35 92.5669 41.69C93.1269 42.03 93.8269 42.2 94.6669 42.2C95.0269 42.2 95.3869 42.16 95.7469 42.08C96.1269 42 96.4669 41.87 96.7669 41.69C97.0669 41.51 97.3069 41.29 97.4869 41.03C97.6669 40.75 97.7569 40.42 97.7569 40.04C97.7569 39.66 97.6669 39.35 97.4869 39.11C97.3269 38.87 97.1069 38.67 96.8269 38.51C96.5469 38.33 96.2269 38.19 95.8669 38.09C95.5069 37.99 95.1369 37.9 94.7569 37.82C94.0969 37.68 93.4669 37.52 92.8669 37.34C92.2669 37.16 91.7369 36.93 91.2769 36.65C90.8369 36.35 90.4769 35.97 90.1969 35.51C89.9369 35.05 89.8069 34.46 89.8069 33.74C89.8069 33.06 89.9569 32.46 90.2569 31.94C90.5569 31.42 90.9569 30.99 91.4569 30.65C91.9569 30.31 92.5169 30.05 93.1369 29.87C93.7569 29.69 94.3969 29.6 95.0569 29.6C96.0569 29.6 96.9769 29.8 97.8169 30.2C98.6769 30.6 99.3469 31.25 99.8269 32.15L97.8769 33.44C97.5769 32.94 97.1769 32.54 96.6769 32.24C96.1969 31.92 95.6069 31.76 94.9069 31.76C94.5869 31.76 94.2569 31.8 93.9169 31.88C93.5969 31.96 93.3069 32.08 93.0469 32.24C92.7869 32.4 92.5669 32.61 92.3869 32.87C92.2269 33.11 92.1469 33.39 92.1469 33.71C92.1469 34.01 92.2369 34.27 92.4169 34.49C92.6169 34.69 92.8769 34.87 93.1969 35.03C93.5369 35.19 93.9169 35.33 94.3369 35.45C94.7769 35.57 95.2269 35.67 95.6869 35.75C96.3069 35.87 96.8969 36.03 97.4569 36.23C98.0169 36.41 98.5069 36.66 98.9269 36.98C99.3469 37.3 99.6769 37.7 99.9169 38.18C100.157 38.66 100.277 39.25 100.277 39.95C100.277 40.75 100.117 41.43 99.7969 41.99C99.4769 42.55 99.0469 43.01 98.5069 43.37C97.9869 43.71 97.3869 43.96 96.7069 44.12C96.0469 44.28 95.3669 44.36 94.6669 44.36C93.4669 44.36 92.4269 44.18 91.5469 43.82C90.6869 43.44 89.9069 42.75 89.2069 41.75L91.0669 40.31ZM111.22 31.94H107.08V38.96C107.08 39.42 107.09 39.85 107.11 40.25C107.13 40.63 107.21 40.97 107.35 41.27C107.49 41.55 107.7 41.78 107.98 41.96C108.26 42.12 108.66 42.2 109.18 42.2C109.52 42.2 109.87 42.16 110.23 42.08C110.59 42 110.93 41.88 111.25 41.72L111.34 43.85C110.94 44.03 110.49 44.16 109.99 44.24C109.51 44.32 109.05 44.36 108.61 44.36C107.77 44.36 107.1 44.25 106.6 44.03C106.1 43.81 105.71 43.5 105.43 43.1C105.15 42.7 104.96 42.21 104.86 41.63C104.78 41.03 104.74 40.37 104.74 39.65V31.94H101.68V29.96H104.74V25.97H107.08V29.96H111.22V31.94ZM114.326 29.96H116.666V44H114.326V29.96ZM113.786 24.47C113.786 24.01 113.946 23.61 114.266 23.27C114.606 22.93 115.016 22.76 115.496 22.76C115.976 22.76 116.376 22.93 116.696 23.27C117.036 23.61 117.206 24.01 117.206 24.47C117.206 24.97 117.046 25.38 116.726 25.7C116.406 26.02 115.996 26.18 115.496 26.18C114.996 26.18 114.586 26.02 114.266 25.7C113.946 25.38 113.786 24.97 113.786 24.47ZM121.324 33.29C121.324 32.65 121.304 32.05 121.264 31.49C121.224 30.93 121.204 30.42 121.204 29.96H123.424C123.424 30.34 123.434 30.72 123.454 31.1C123.474 31.48 123.484 31.87 123.484 32.27H123.544C123.704 31.93 123.924 31.6 124.204 31.28C124.504 30.96 124.854 30.68 125.254 30.44C125.654 30.18 126.104 29.98 126.604 29.84C127.104 29.68 127.644 29.6 128.224 29.6C129.144 29.6 129.934 29.74 130.594 30.02C131.274 30.3 131.834 30.69 132.274 31.19C132.714 31.69 133.034 32.3 133.234 33.02C133.454 33.72 133.564 34.49 133.564 35.33V44H131.224V35.57C131.224 34.39 130.964 33.46 130.444 32.78C129.924 32.1 129.114 31.76 128.014 31.76C127.254 31.76 126.594 31.89 126.034 32.15C125.494 32.41 125.044 32.78 124.684 33.26C124.344 33.74 124.084 34.31 123.904 34.97C123.744 35.63 123.664 36.36 123.664 37.16V44H121.324V33.29ZM150.533 41.45C149.693 42.53 148.773 43.29 147.773 43.73C146.773 44.15 145.613 44.36 144.293 44.36C143.193 44.36 142.203 44.17 141.323 43.79C140.443 43.39 139.693 42.86 139.073 42.2C138.473 41.54 138.003 40.76 137.663 39.86C137.343 38.96 137.183 38 137.183 36.98C137.183 35.9 137.363 34.91 137.723 34.01C138.083 33.09 138.583 32.31 139.223 31.67C139.863 31.01 140.623 30.5 141.503 30.14C142.383 29.78 143.343 29.6 144.383 29.6C145.363 29.6 146.263 29.77 147.083 30.11C147.903 30.43 148.603 30.91 149.183 31.55C149.783 32.17 150.243 32.94 150.563 33.86C150.883 34.76 151.043 35.79 151.043 36.95V37.7H139.703C139.743 38.3 139.883 38.88 140.123 39.44C140.383 39.98 140.713 40.46 141.113 40.88C141.513 41.28 141.983 41.6 142.523 41.84C143.063 42.08 143.653 42.2 144.293 42.2C145.313 42.2 146.173 42.02 146.873 41.66C147.573 41.3 148.203 40.77 148.763 40.07L150.533 41.45ZM148.523 35.72C148.483 34.52 148.093 33.56 147.353 32.84C146.613 32.12 145.593 31.76 144.293 31.76C142.993 31.76 141.943 32.12 141.143 32.84C140.343 33.56 139.863 34.52 139.703 35.72H148.523ZM178.313 27.14C177.673 26.28 176.883 25.64 175.943 25.22C175.003 24.78 174.023 24.56 173.003 24.56C171.823 24.56 170.733 24.8 169.733 25.28C168.753 25.76 167.903 26.41 167.183 27.23C166.463 28.03 165.903 28.97 165.503 30.05C165.103 31.11 164.903 32.22 164.903 33.38C164.903 34.62 165.103 35.78 165.503 36.86C165.903 37.92 166.453 38.85 167.153 39.65C167.873 40.43 168.723 41.05 169.703 41.51C170.703 41.97 171.803 42.2 173.003 42.2C174.303 42.2 175.463 41.95 176.483 41.45C177.503 40.93 178.393 40.19 179.153 39.23L181.043 40.82C180.083 42.1 178.923 43.04 177.563 43.64C176.223 44.24 174.703 44.54 173.003 44.54C171.483 44.54 170.063 44.26 168.743 43.7C167.423 43.14 166.273 42.37 165.293 41.39C164.333 40.39 163.573 39.21 163.013 37.85C162.473 36.49 162.203 35 162.203 33.38C162.203 31.82 162.463 30.36 162.983 29C163.523 27.64 164.273 26.46 165.233 25.46C166.193 24.46 167.333 23.67 168.653 23.09C169.973 22.51 171.423 22.22 173.003 22.22C174.443 22.22 175.823 22.48 177.143 23C178.483 23.52 179.603 24.37 180.503 25.55L178.313 27.14ZM184.136 21.32H186.476V31.91H186.536C186.696 31.63 186.916 31.36 187.196 31.1C187.476 30.82 187.806 30.57 188.186 30.35C188.586 30.13 189.026 29.95 189.506 29.81C189.986 29.67 190.496 29.6 191.036 29.6C191.956 29.6 192.746 29.74 193.406 30.02C194.086 30.3 194.646 30.69 195.086 31.19C195.526 31.69 195.846 32.3 196.046 33.02C196.266 33.72 196.376 34.49 196.376 35.33V44H194.036V35.57C194.036 34.39 193.776 33.46 193.256 32.78C192.736 32.1 191.926 31.76 190.826 31.76C190.066 31.76 189.406 31.89 188.846 32.15C188.306 32.41 187.856 32.78 187.496 33.26C187.156 33.74 186.896 34.31 186.716 34.97C186.556 35.63 186.476 36.36 186.476 37.16V44H184.136V21.32ZM201.016 29.96H203.356V44H201.016V29.96ZM200.476 24.47C200.476 24.01 200.636 23.61 200.956 23.27C201.296 22.93 201.706 22.76 202.186 22.76C202.666 22.76 203.066 22.93 203.386 23.27C203.726 23.61 203.896 24.01 203.896 24.47C203.896 24.97 203.736 25.38 203.416 25.7C203.096 26.02 202.686 26.18 202.186 26.18C201.686 26.18 201.276 26.02 200.956 25.7C200.636 25.38 200.476 24.97 200.476 24.47ZM207.833 31.76C208.553 31.02 209.403 30.48 210.383 30.14C211.383 29.78 212.393 29.6 213.413 29.6C215.493 29.6 216.993 30.09 217.913 31.07C218.833 32.05 219.293 33.54 219.293 35.54V41.57C219.293 41.97 219.313 42.39 219.353 42.83C219.393 43.25 219.443 43.64 219.503 44H217.253C217.173 43.68 217.123 43.33 217.103 42.95C217.103 42.55 217.103 42.2 217.103 41.9H217.043C216.583 42.62 215.963 43.21 215.183 43.67C214.423 44.13 213.503 44.36 212.423 44.36C211.703 44.36 211.023 44.27 210.383 44.09C209.763 43.91 209.213 43.65 208.733 43.31C208.273 42.95 207.903 42.51 207.623 41.99C207.343 41.47 207.203 40.87 207.203 40.19C207.203 39.03 207.503 38.12 208.103 37.46C208.703 36.8 209.443 36.31 210.323 35.99C211.223 35.67 212.183 35.47 213.203 35.39C214.243 35.31 215.193 35.27 216.053 35.27H216.953V34.85C216.953 33.83 216.643 33.06 216.023 32.54C215.423 32.02 214.573 31.76 213.473 31.76C212.713 31.76 211.963 31.89 211.223 32.15C210.503 32.39 209.863 32.77 209.303 33.29L207.833 31.76ZM214.613 37.25C213.113 37.25 211.923 37.46 211.043 37.88C210.163 38.3 209.723 38.99 209.723 39.95C209.723 40.83 210.013 41.46 210.593 41.84C211.193 42.2 211.933 42.38 212.813 42.38C213.493 42.38 214.083 42.27 214.583 42.05C215.103 41.81 215.533 41.5 215.873 41.12C216.213 40.74 216.473 40.3 216.653 39.8C216.833 39.28 216.933 38.73 216.953 38.15V37.25H214.613ZM223.57 33.29C223.57 32.65 223.55 32.05 223.51 31.49C223.47 30.93 223.45 30.42 223.45 29.96H225.67C225.67 30.34 225.68 30.72 225.7 31.1C225.72 31.48 225.73 31.87 225.73 32.27H225.79C225.95 31.93 226.17 31.6 226.45 31.28C226.75 30.96 227.1 30.68 227.5 30.44C227.9 30.18 228.35 29.98 228.85 29.84C229.35 29.68 229.89 29.6 230.47 29.6C231.39 29.6 232.18 29.74 232.84 30.02C233.52 30.3 234.08 30.69 234.52 31.19C234.96 31.69 235.28 32.3 235.48 33.02C235.7 33.72 235.81 34.49 235.81 35.33V44H233.47V35.57C233.47 34.39 233.21 33.46 232.69 32.78C232.17 32.1 231.36 31.76 230.26 31.76C229.5 31.76 228.84 31.89 228.28 32.15C227.74 32.41 227.29 32.78 226.93 33.26C226.59 33.74 226.33 34.31 226.15 34.97C225.99 35.63 225.91 36.36 225.91 37.16V44H223.57V33.29ZM254.25 43.37C254.25 45.93 253.59 47.87 252.27 49.19C250.97 50.53 249.08 51.2 246.6 51.2C245.22 51.2 243.97 51 242.85 50.6C241.75 50.2 240.7 49.51 239.7 48.53L241.38 46.61C242.12 47.41 242.9 48.01 243.72 48.41C244.56 48.83 245.52 49.04 246.6 49.04C247.64 49.04 248.5 48.88 249.18 48.56C249.88 48.26 250.43 47.84 250.83 47.3C251.23 46.78 251.51 46.18 251.67 45.5C251.83 44.82 251.91 44.11 251.91 43.37V41.57H251.85C251.29 42.47 250.56 43.13 249.66 43.55C248.76 43.97 247.84 44.18 246.9 44.18C245.8 44.18 244.79 44 243.87 43.64C242.95 43.28 242.16 42.78 241.5 42.14C240.84 41.5 240.33 40.74 239.97 39.86C239.61 38.98 239.43 38.02 239.43 36.98C239.43 35.84 239.61 34.81 239.97 33.89C240.33 32.97 240.83 32.2 241.47 31.58C242.13 30.94 242.92 30.45 243.84 30.11C244.76 29.77 245.78 29.6 246.9 29.6C247.38 29.6 247.86 29.66 248.34 29.78C248.82 29.88 249.28 30.05 249.72 30.29C250.18 30.51 250.59 30.8 250.95 31.16C251.31 31.5 251.61 31.9 251.85 32.36H251.91V29.96H254.25V43.37ZM241.95 36.98C241.95 37.7 242.08 38.37 242.34 38.99C242.6 39.59 242.95 40.12 243.39 40.58C243.85 41.02 244.38 41.37 244.98 41.63C245.58 41.89 246.22 42.02 246.9 42.02C247.7 42.02 248.41 41.88 249.03 41.6C249.65 41.32 250.17 40.95 250.59 40.49C251.03 40.01 251.36 39.47 251.58 38.87C251.8 38.25 251.91 37.6 251.91 36.92C251.91 36.16 251.79 35.47 251.55 34.85C251.31 34.21 250.97 33.66 250.53 33.2C250.09 32.74 249.56 32.39 248.94 32.15C248.32 31.89 247.64 31.76 246.9 31.76C246.16 31.76 245.48 31.9 244.86 32.18C244.26 32.44 243.74 32.81 243.3 33.29C242.88 33.75 242.55 34.3 242.31 34.94C242.07 35.56 241.95 36.24 241.95 36.98Z" fill="#000C4C"/>
</svg>
