<svg width="322" height="128" viewBox="0 0 322 128" fill="none" xmlns="http://www.w3.org/2000/svg">
<path d="M79.444 66.2815C79.012 66.9295 78.472 67.5415 77.824 68.1175C77.2 68.6935 76.48 69.1975 75.664 69.6295C74.848 70.0375 73.96 70.3615 73 70.6015C72.064 70.8415 71.068 70.9615 70.012 70.9615C68.116 70.9615 66.352 70.6255 64.72 69.9535C63.112 69.2815 61.708 68.3575 60.508 67.1815C59.332 65.9815 58.408 64.5655 57.736 62.9335C57.064 61.3015 56.728 59.5135 56.728 57.5695C56.728 55.6255 57.064 53.8375 57.736 52.2055C58.408 50.5735 59.332 49.1695 60.508 47.9935C61.708 46.7935 63.112 45.8575 64.72 45.1855C66.352 44.5135 68.116 44.1775 70.012 44.1775C71.596 44.1775 73.18 44.4895 74.764 45.1135C76.348 45.7375 77.704 46.7695 78.832 48.2095L76.564 49.9015C76.3 49.4935 75.94 49.0855 75.484 48.6775C75.028 48.2695 74.5 47.9095 73.9 47.5975C73.324 47.2855 72.7 47.0335 72.028 46.8415C71.356 46.6495 70.684 46.5535 70.012 46.5535C68.38 46.5535 66.916 46.8535 65.62 47.4535C64.324 48.0535 63.22 48.8575 62.308 49.8655C61.42 50.8735 60.736 52.0495 60.256 53.3935C59.776 54.7135 59.536 56.1055 59.536 57.5695C59.536 59.0335 59.776 60.4375 60.256 61.7815C60.736 63.1015 61.42 64.2655 62.308 65.2735C63.22 66.2815 64.324 67.0855 65.62 67.6855C66.916 68.2855 68.38 68.5855 70.012 68.5855C70.684 68.5855 71.344 68.5255 71.992 68.4055C72.664 68.2855 73.312 68.0815 73.936 67.7935C74.584 67.5055 75.184 67.1215 75.736 66.6415C76.312 66.1375 76.84 65.5135 77.32 64.7695L79.444 66.2815ZM82.9397 43.0975H85.3157V56.1655H85.3877C85.6517 55.7095 85.9877 55.2895 86.3957 54.9055C86.8037 54.5215 87.2597 54.1975 87.7637 53.9335C88.2677 53.6455 88.7957 53.4295 89.3477 53.2855C89.9237 53.1175 90.4877 53.0335 91.0397 53.0335C93.1997 53.0335 94.7957 53.6095 95.8277 54.7615C96.8597 55.8895 97.3757 57.5095 97.3757 59.6215V70.3135H94.9997V60.9895C94.9997 59.1175 94.6757 57.6895 94.0277 56.7055C93.3797 55.6975 92.1797 55.1935 90.4277 55.1935C90.3077 55.1935 89.9717 55.2415 89.4197 55.3375C88.8677 55.4335 88.2797 55.6975 87.6557 56.1295C87.0557 56.5615 86.5157 57.2095 86.0357 58.0735C85.5557 58.9375 85.3157 60.1375 85.3157 61.6735V70.3135H82.9397V43.0975ZM103.196 58.7215C103.196 57.9775 103.172 57.2215 103.124 56.4535C103.1 55.6855 103.076 54.6895 103.052 53.4655H105.392V56.5975H105.464C105.632 56.1415 105.872 55.7095 106.184 55.3015C106.496 54.8695 106.868 54.4855 107.3 54.1495C107.756 53.8135 108.272 53.5495 108.848 53.3575C109.448 53.1415 110.12 53.0335 110.864 53.0335C111.536 53.0335 112.124 53.1055 112.628 53.2495L112.16 55.5895C111.848 55.4695 111.392 55.4095 110.792 55.4095C109.88 55.4095 109.1 55.5895 108.452 55.9495C107.804 56.2855 107.264 56.7295 106.832 57.2815C106.4 57.8095 106.076 58.3855 105.86 59.0095C105.668 59.6335 105.572 60.2335 105.572 60.8095V70.3135H103.196V58.7215ZM118.353 46.9855C118.353 47.4895 118.173 47.9095 117.813 48.2455C117.453 48.5575 117.057 48.7135 116.625 48.7135C116.193 48.7135 115.797 48.5575 115.437 48.2455C115.077 47.9095 114.897 47.4895 114.897 46.9855C114.897 46.4815 115.077 46.0735 115.437 45.7615C115.797 45.4255 116.193 45.2575 116.625 45.2575C117.057 45.2575 117.453 45.4255 117.813 45.7615C118.173 46.0735 118.353 46.4815 118.353 46.9855ZM117.813 70.3135H115.437V53.4655H117.813V70.3135ZM132.473 57.4615C132.113 56.7655 131.633 56.2135 131.033 55.8055C130.433 55.3975 129.701 55.1935 128.837 55.1935C128.429 55.1935 128.009 55.2415 127.577 55.3375C127.169 55.4335 126.797 55.5895 126.461 55.8055C126.125 55.9975 125.849 56.2495 125.633 56.5615C125.441 56.8735 125.345 57.2575 125.345 57.7135C125.345 58.5055 125.621 59.0815 126.173 59.4415C126.725 59.8015 127.553 60.1135 128.657 60.3775L131.069 60.9535C132.245 61.2175 133.217 61.7575 133.985 62.5735C134.777 63.3655 135.173 64.3615 135.173 65.5615C135.173 66.4735 134.981 67.2655 134.597 67.9375C134.237 68.5855 133.745 69.1255 133.121 69.5575C132.521 69.9655 131.825 70.2655 131.033 70.4575C130.241 70.6495 129.437 70.7455 128.621 70.7455C127.325 70.7455 126.113 70.5055 124.985 70.0255C123.881 69.5215 122.933 68.6695 122.141 67.4695L124.193 66.0655C124.673 66.8335 125.273 67.4455 125.993 67.9015C126.737 68.3575 127.613 68.5855 128.621 68.5855C129.101 68.5855 129.581 68.5375 130.061 68.4415C130.541 68.3215 130.961 68.1535 131.321 67.9375C131.705 67.6975 132.005 67.3975 132.221 67.0375C132.461 66.6775 132.581 66.2575 132.581 65.7775C132.581 64.9375 132.269 64.3375 131.645 63.9775C131.021 63.5935 130.265 63.2935 129.377 63.0775L127.073 62.5375C126.785 62.4655 126.389 62.3455 125.885 62.1775C125.405 62.0095 124.925 61.7575 124.445 61.4215C123.989 61.0855 123.593 60.6535 123.257 60.1255C122.921 59.5735 122.753 58.9015 122.753 58.1095C122.753 57.2455 122.921 56.4895 123.257 55.8415C123.617 55.1935 124.085 54.6655 124.661 54.2575C125.261 53.8495 125.933 53.5495 126.677 53.3575C127.421 53.1415 128.189 53.0335 128.981 53.0335C130.157 53.0335 131.249 53.2615 132.257 53.7175C133.265 54.1735 134.045 54.9535 134.597 56.0575L132.473 57.4615ZM147.585 55.6255H142.725V65.5615C142.725 66.1855 142.785 66.7015 142.905 67.1095C143.025 67.4935 143.193 67.7935 143.409 68.0095C143.625 68.2255 143.877 68.3815 144.165 68.4775C144.477 68.5495 144.813 68.5855 145.173 68.5855C145.581 68.5855 146.001 68.5255 146.433 68.4055C146.865 68.2855 147.261 68.1295 147.621 67.9375L147.729 70.1335C146.841 70.5415 145.773 70.7455 144.525 70.7455C144.069 70.7455 143.589 70.6855 143.085 70.5655C142.605 70.4455 142.161 70.2175 141.753 69.8815C141.345 69.5455 141.009 69.0895 140.745 68.5135C140.481 67.9375 140.349 67.1815 140.349 66.2455V55.6255H136.785V53.4655H140.349V48.7135H142.725V53.4655H147.585V55.6255ZM154.282 46.9855C154.282 47.4895 154.102 47.9095 153.742 48.2455C153.382 48.5575 152.986 48.7135 152.554 48.7135C152.122 48.7135 151.726 48.5575 151.366 48.2455C151.006 47.9095 150.826 47.4895 150.826 46.9855C150.826 46.4815 151.006 46.0735 151.366 45.7615C151.726 45.4255 152.122 45.2575 152.554 45.2575C152.986 45.2575 153.382 45.4255 153.742 45.7615C154.102 46.0735 154.282 46.4815 154.282 46.9855ZM153.742 70.3135H151.366V53.4655H153.742V70.3135ZM161.743 53.4655C161.791 53.9215 161.815 54.3775 161.815 54.8335C161.839 55.2655 161.851 55.7095 161.851 56.1655H161.923C162.187 55.7095 162.523 55.2895 162.931 54.9055C163.339 54.5215 163.795 54.1975 164.299 53.9335C164.803 53.6455 165.331 53.4295 165.883 53.2855C166.459 53.1175 167.023 53.0335 167.575 53.0335C169.735 53.0335 171.331 53.6095 172.363 54.7615C173.395 55.8895 173.911 57.5095 173.911 59.6215V70.3135H171.535V60.9895C171.535 59.1175 171.211 57.6895 170.563 56.7055C169.915 55.6975 168.715 55.1935 166.963 55.1935C166.843 55.1935 166.507 55.2415 165.955 55.3375C165.403 55.4335 164.815 55.6975 164.191 56.1295C163.591 56.5615 163.051 57.2095 162.571 58.0735C162.091 58.9375 161.851 60.1375 161.851 61.6735V70.3135H159.475V57.1735C159.475 56.7175 159.451 56.1415 159.403 55.4455C159.379 54.7495 159.343 54.0895 159.295 53.4655H161.743ZM192.583 60.5935C192.583 58.9855 192.103 57.6895 191.143 56.7055C190.183 55.6975 188.839 55.1935 187.111 55.1935C186.343 55.1935 185.599 55.3495 184.879 55.6615C184.159 55.9495 183.523 56.3455 182.971 56.8495C182.443 57.3535 182.011 57.9295 181.675 58.5775C181.363 59.2255 181.207 59.8975 181.207 60.5935H192.583ZM181.135 62.5375C181.207 63.3775 181.411 64.1695 181.747 64.9135C182.083 65.6575 182.527 66.3055 183.079 66.8575C183.631 67.3855 184.267 67.8055 184.987 68.1175C185.707 68.4295 186.487 68.5855 187.327 68.5855C188.599 68.5855 189.691 68.2975 190.603 67.7215C191.539 67.1215 192.247 66.4375 192.727 65.6695L194.563 67.1815C193.555 68.4535 192.439 69.3655 191.215 69.9175C190.015 70.4695 188.719 70.7455 187.327 70.7455C186.079 70.7455 184.915 70.5295 183.835 70.0975C182.779 69.6415 181.867 69.0175 181.099 68.2255C180.331 67.4335 179.719 66.4975 179.263 65.4175C178.831 64.3375 178.615 63.1615 178.615 61.8895C178.615 60.6175 178.831 59.4415 179.263 58.3615C179.695 57.2815 180.295 56.3455 181.063 55.5535C181.831 54.7615 182.731 54.1495 183.763 53.7175C184.795 53.2615 185.911 53.0335 187.111 53.0335C188.383 53.0335 189.523 53.2615 190.531 53.7175C191.539 54.1735 192.379 54.7855 193.051 55.5535C193.747 56.2975 194.275 57.1855 194.635 58.2175C194.995 59.2255 195.175 60.3055 195.175 61.4575V62.5375H181.135ZM231.354 66.2815C230.922 66.9295 230.382 67.5415 229.734 68.1175C229.11 68.6935 228.39 69.1975 227.574 69.6295C226.758 70.0375 225.87 70.3615 224.91 70.6015C223.974 70.8415 222.978 70.9615 221.922 70.9615C220.026 70.9615 218.262 70.6255 216.63 69.9535C215.022 69.2815 213.618 68.3575 212.418 67.1815C211.242 65.9815 210.318 64.5655 209.646 62.9335C208.974 61.3015 208.638 59.5135 208.638 57.5695C208.638 55.6255 208.974 53.8375 209.646 52.2055C210.318 50.5735 211.242 49.1695 212.418 47.9935C213.618 46.7935 215.022 45.8575 216.63 45.1855C218.262 44.5135 220.026 44.1775 221.922 44.1775C223.506 44.1775 225.09 44.4895 226.674 45.1135C228.258 45.7375 229.614 46.7695 230.742 48.2095L228.474 49.9015C228.21 49.4935 227.85 49.0855 227.394 48.6775C226.938 48.2695 226.41 47.9095 225.81 47.5975C225.234 47.2855 224.61 47.0335 223.938 46.8415C223.266 46.6495 222.594 46.5535 221.922 46.5535C220.29 46.5535 218.826 46.8535 217.53 47.4535C216.234 48.0535 215.13 48.8575 214.218 49.8655C213.33 50.8735 212.646 52.0495 212.166 53.3935C211.686 54.7135 211.446 56.1055 211.446 57.5695C211.446 59.0335 211.686 60.4375 212.166 61.7815C212.646 63.1015 213.33 64.2655 214.218 65.2735C215.13 66.2815 216.234 67.0855 217.53 67.6855C218.826 68.2855 220.29 68.5855 221.922 68.5855C222.594 68.5855 223.254 68.5255 223.902 68.4055C224.574 68.2855 225.222 68.0815 225.846 67.7935C226.494 67.5055 227.094 67.1215 227.646 66.6415C228.222 66.1375 228.75 65.5135 229.23 64.7695L231.354 66.2815ZM234.85 43.0975H237.226V56.1655H237.298C237.562 55.7095 237.898 55.2895 238.306 54.9055C238.714 54.5215 239.17 54.1975 239.674 53.9335C240.178 53.6455 240.706 53.4295 241.258 53.2855C241.834 53.1175 242.398 53.0335 242.95 53.0335C245.11 53.0335 246.706 53.6095 247.738 54.7615C248.77 55.8895 249.286 57.5095 249.286 59.6215V70.3135H246.91V60.9895C246.91 59.1175 246.586 57.6895 245.938 56.7055C245.29 55.6975 244.09 55.1935 242.338 55.1935C242.218 55.1935 241.882 55.2415 241.33 55.3375C240.778 55.4335 240.19 55.6975 239.566 56.1295C238.966 56.5615 238.426 57.2095 237.946 58.0735C237.466 58.9375 237.226 60.1375 237.226 61.6735V70.3135H234.85V43.0975ZM258.31 46.9855C258.31 47.4895 258.13 47.9095 257.77 48.2455C257.41 48.5575 257.014 48.7135 256.582 48.7135C256.15 48.7135 255.754 48.5575 255.394 48.2455C255.034 47.9095 254.854 47.4895 254.854 46.9855C254.854 46.4815 255.034 46.0735 255.394 45.7615C255.754 45.4255 256.15 45.2575 256.582 45.2575C257.014 45.2575 257.41 45.4255 257.77 45.7615C258.13 46.0735 258.31 46.4815 258.31 46.9855ZM257.77 70.3135H255.394V53.4655H257.77V70.3135ZM273.078 61.9255C272.478 61.9255 271.722 61.9615 270.81 62.0335C269.922 62.0815 269.058 62.2255 268.218 62.4655C267.402 62.6815 266.694 63.0295 266.094 63.5095C265.518 63.9895 265.23 64.6495 265.23 65.4895C265.23 66.0415 265.338 66.5215 265.554 66.9295C265.794 67.3135 266.106 67.6375 266.49 67.9015C266.874 68.1415 267.294 68.3215 267.75 68.4415C268.23 68.5375 268.71 68.5855 269.19 68.5855C270.054 68.5855 270.798 68.4415 271.422 68.1535C272.07 67.8655 272.61 67.4815 273.042 67.0015C273.474 66.4975 273.786 65.9215 273.978 65.2735C274.194 64.6015 274.302 63.8935 274.302 63.1495V61.9255H273.078ZM274.302 59.9815V59.5495C274.302 56.6455 272.862 55.1935 269.982 55.1935C268.014 55.1935 266.298 55.8535 264.834 57.1735L263.394 55.4815C264.978 53.8495 267.354 53.0335 270.522 53.0335C271.338 53.0335 272.118 53.1535 272.862 53.3935C273.63 53.6335 274.29 54.0055 274.842 54.5095C275.394 54.9895 275.838 55.6015 276.174 56.3455C276.51 57.0895 276.678 57.9775 276.678 59.0095V66.5335C276.678 67.1815 276.702 67.8655 276.75 68.5855C276.822 69.2815 276.894 69.8575 276.966 70.3135H274.662C274.59 69.9055 274.53 69.4615 274.482 68.9815C274.458 68.5015 274.446 68.0335 274.446 67.5775H274.374C273.678 68.7055 272.85 69.5215 271.89 70.0255C270.954 70.5055 269.802 70.7455 268.434 70.7455C267.69 70.7455 266.97 70.6375 266.274 70.4215C265.578 70.2295 264.954 69.9295 264.402 69.5215C263.874 69.0895 263.442 68.5735 263.106 67.9735C262.794 67.3495 262.638 66.6295 262.638 65.8135C262.638 64.4455 262.986 63.3775 263.682 62.6095C264.402 61.8175 265.29 61.2295 266.346 60.8455C267.426 60.4615 268.566 60.2215 269.766 60.1255C270.99 60.0295 272.106 59.9815 273.114 59.9815H274.302ZM284.438 53.4655C284.486 53.9215 284.51 54.3775 284.51 54.8335C284.534 55.2655 284.546 55.7095 284.546 56.1655H284.618C284.882 55.7095 285.218 55.2895 285.626 54.9055C286.034 54.5215 286.49 54.1975 286.994 53.9335C287.498 53.6455 288.026 53.4295 288.578 53.2855C289.154 53.1175 289.718 53.0335 290.27 53.0335C292.43 53.0335 294.026 53.6095 295.058 54.7615C296.09 55.8895 296.606 57.5095 296.606 59.6215V70.3135H294.23V60.9895C294.23 59.1175 293.906 57.6895 293.258 56.7055C292.61 55.6975 291.41 55.1935 289.658 55.1935C289.538 55.1935 289.202 55.2415 288.65 55.3375C288.098 55.4335 287.51 55.6975 286.886 56.1295C286.286 56.5615 285.746 57.2095 285.266 58.0735C284.786 58.9375 284.546 60.1375 284.546 61.6735V70.3135H282.17V57.1735C282.17 56.7175 282.146 56.1415 282.098 55.4455C282.074 54.7495 282.038 54.0895 281.99 53.4655H284.438ZM303.902 61.6735C303.902 62.5615 304.058 63.4015 304.37 64.1935C304.706 64.9615 305.15 65.6455 305.702 66.2455C306.278 66.8215 306.938 67.2895 307.682 67.6495C308.45 67.9855 309.278 68.1535 310.166 68.1535C311.03 68.1535 311.846 67.9975 312.614 67.6855C313.406 67.3735 314.102 66.9415 314.702 66.3895C315.302 65.8135 315.758 65.1295 316.07 64.3375C316.406 63.5455 316.562 62.6575 316.538 61.6735C316.538 60.7855 316.394 59.9575 316.106 59.1895C315.818 58.3975 315.398 57.7135 314.846 57.1375C314.294 56.5375 313.622 56.0695 312.83 55.7335C312.038 55.3735 311.15 55.1935 310.166 55.1935C309.278 55.1935 308.45 55.3735 307.682 55.7335C306.938 56.0695 306.278 56.5375 305.702 57.1375C305.15 57.7135 304.706 58.3975 304.37 59.1895C304.058 59.9575 303.902 60.7855 303.902 61.6735ZM303.47 73.6975C304.166 74.6335 305.066 75.3775 306.17 75.9295C307.298 76.5055 308.546 76.7935 309.914 76.7935C311.114 76.7935 312.134 76.6135 312.974 76.2535C313.814 75.9175 314.486 75.4495 314.99 74.8495C315.518 74.2495 315.89 73.5415 316.106 72.7255C316.346 71.9335 316.466 71.0815 316.466 70.1695V67.1455H316.394C315.626 68.2975 314.69 69.1135 313.586 69.5935C312.482 70.0735 311.318 70.3135 310.094 70.3135C308.87 70.3135 307.718 70.0975 306.638 69.6655C305.582 69.2335 304.658 68.6455 303.866 67.9015C303.074 67.1335 302.45 66.2215 301.994 65.1655C301.538 64.1095 301.31 62.9695 301.31 61.7455C301.31 60.5215 301.526 59.3815 301.958 58.3255C302.39 57.2695 302.978 56.3455 303.722 55.5535C304.49 54.7615 305.39 54.1495 306.422 53.7175C307.478 53.2615 308.63 53.0335 309.878 53.0335C310.382 53.0335 310.91 53.0815 311.462 53.1775C312.038 53.2735 312.602 53.4415 313.154 53.6815C313.73 53.9215 314.294 54.2575 314.846 54.6895C315.398 55.0975 315.914 55.6255 316.394 56.2735H316.466V53.4655H318.842V70.1695C318.842 71.0815 318.722 72.0535 318.482 73.0855C318.266 74.1175 317.822 75.0655 317.15 75.9295C316.502 76.7935 315.59 77.5135 314.414 78.0895C313.238 78.6655 311.702 78.9535 309.806 78.9535C308.126 78.9535 306.626 78.6775 305.306 78.1255C303.986 77.5735 302.786 76.7215 301.706 75.5695L303.47 73.6975Z" fill="#000C4C"/>
<path fill-rule="evenodd" clip-rule="evenodd" d="M66.1989 32.4787L66.7072 21.5279L26.516 42.3098L24.418 87.5074L62.5113 111.923L103.966 91.1998L93.4315 84.3812L93.3997 84.6319L63.234 100.23L34.6429 81.9046L36.2175 47.9813L66.1989 32.4787Z" fill="#000C4C"/>
<mask id="path-3-outside-1" maskUnits="userSpaceOnUse" x="12.5248" y="11.248" width="87.2693" height="97.7474" fill="black">
<rect fill="white" x="12.5248" y="11.248" width="87.2693" height="97.7474"/>
<path fill-rule="evenodd" clip-rule="evenodd" d="M56.4235 26.0599L56.9318 15.1091L16.7406 35.891L14.6426 81.0885L52.7359 105.504L94.1903 84.7809L83.6562 77.9624L83.6244 78.2131L53.4587 93.811L24.8676 75.4857L26.4422 41.5625L56.4235 26.0599Z"/>
</mask>
<path fill-rule="evenodd" clip-rule="evenodd" d="M56.4235 26.0599L56.9318 15.1091L16.7406 35.891L14.6426 81.0885L52.7359 105.504L94.1903 84.7809L83.6562 77.9624L83.6244 78.2131L53.4587 93.811L24.8676 75.4857L26.4422 41.5625L56.4235 26.0599Z" fill="#7A306C"/>
<path d="M56.9318 15.1091L57.9307 15.1555L58.011 13.4253L56.4725 14.2208L56.9318 15.1091ZM56.4235 26.0599L56.8828 26.9482L57.3956 26.683L57.4224 26.1063L56.4235 26.0599ZM16.7406 35.891L16.2813 35.0027L15.7684 35.2679L15.7417 35.8446L16.7406 35.891ZM14.6426 81.0885L13.6437 81.0422L13.6169 81.6189L14.103 81.9305L14.6426 81.0885ZM52.7359 105.504L52.1962 106.346L52.6747 106.653L53.183 106.399L52.7359 105.504ZM94.1903 84.7809L94.6374 85.6754L96.2032 84.8927L94.7337 83.9415L94.1903 84.7809ZM83.6562 77.9624L84.1995 77.1229L82.8642 76.2586L82.6641 77.8366L83.6562 77.9624ZM83.6244 78.2131L84.0837 79.1014L84.5503 78.8601L84.6164 78.3389L83.6244 78.2131ZM53.4587 93.811L52.919 94.6529L53.4051 94.9645L53.918 94.6993L53.4587 93.811ZM24.8676 75.4857L23.8686 75.4394L23.8419 76.0161L24.328 76.3277L24.8676 75.4857ZM26.4422 41.5625L25.9829 40.6742L25.47 40.9394L25.4433 41.5161L26.4422 41.5625ZM55.9328 15.0627L55.4245 26.0135L57.4224 26.1063L57.9307 15.1555L55.9328 15.0627ZM17.1999 36.7793L57.3911 15.9974L56.4725 14.2208L16.2813 35.0027L17.1999 36.7793ZM15.6416 81.1349L17.7395 35.9374L15.7417 35.8446L13.6437 81.0422L15.6416 81.1349ZM53.2755 104.662L15.1822 80.2466L14.103 81.9305L52.1962 106.346L53.2755 104.662ZM93.7431 83.8865L52.2887 104.61L53.183 106.399L94.6374 85.6754L93.7431 83.8865ZM83.1128 78.8019L93.6469 85.6204L94.7337 83.9415L84.1995 77.1229L83.1128 78.8019ZM82.6641 77.8366L82.6323 78.0872L84.6164 78.3389L84.6482 78.0883L82.6641 77.8366ZM83.1651 77.3248L52.9993 92.9228L53.918 94.6993L84.0837 79.1014L83.1651 77.3248ZM53.9983 92.9691L25.4072 74.6438L24.328 76.3277L52.919 94.6529L53.9983 92.9691ZM25.8665 75.5321L27.4411 41.6089L25.4433 41.5161L23.8686 75.4394L25.8665 75.5321ZM26.9015 42.4508L56.8828 26.9482L55.9642 25.1716L25.9829 40.6742L26.9015 42.4508Z" fill="white" mask="url(#path-3-outside-1)"/>
</svg>
