<svg width="409" height="119" viewBox="0 0 409 119" fill="none" xmlns="http://www.w3.org/2000/svg">
<path d="M116 69C102.189 69 91 80.1885 91 94C91 107.811 102.189 119 116 119C129.811 119 141 107.811 141 94C141 80.1885 129.811 69 116 69ZM126.748 98.7643H120.754V104.758C120.754 107.391 118.623 109.523 115.99 109.523C113.357 109.523 111.225 107.391 111.225 104.758V98.7643H105.232C102.598 98.7643 100.467 96.6332 100.467 94C100.467 91.3668 102.598 89.2357 105.232 89.2357H111.225V83.2418C111.225 80.6086 113.357 78.4775 115.99 78.4775C118.623 78.4775 120.754 80.6086 120.754 83.2418V89.2357H126.748C129.381 89.2357 131.512 91.3668 131.512 94C131.512 96.6332 129.381 98.7643 126.748 98.7643Z" fill="black"/>
<path d="M25.0051 84.5574C29.3012 84.5574 32.7838 81.0747 32.7838 76.7787C32.7838 72.4826 29.3012 69 25.0051 69C20.7091 69 17.2264 72.4826 17.2264 76.7787C17.2264 81.0747 20.7091 84.5574 25.0051 84.5574Z" fill="black"/>
<path d="M25.0051 88.2119C15.0827 88.2119 7.02838 91.2233 7.02838 101.146V119H12.5C12.5408 112.855 12.9798 103.014 15.44 99.7983V119H34.56V99.7881C37.0202 103.004 37.4592 112.885 37.5 118.99H42.9716V101.146C42.9818 91.2233 34.9275 88.2119 25.0051 88.2119ZM25.0051 109.118C25.0051 109.118 19.4926 104.637 19.4926 102.452C19.4926 100.829 20.7993 99.5124 22.4326 99.5124C23.5453 99.5124 24.5355 100.145 25.0153 101.095C25.4951 100.186 26.4853 99.5124 27.598 99.5124C29.2211 99.5124 30.538 100.819 30.538 102.452C30.5176 104.749 25.0051 109.118 25.0051 109.118Z" fill="black"/>
<g clip-path="url(#clip0)">
<path d="M226.433 69H183.567L180 81.1423H230L226.433 69Z" fill="black"/>
<path d="M230 113.644H180V119H230V113.644Z" fill="black"/>
<path d="M225.717 111.621V83.166H184.283V111.621H196.905V94.7972H213.095V111.621H225.717ZM207.504 88.7977H206.114V90.1877C206.114 90.8009 205.613 91.3017 205 91.3017C204.387 91.3017 203.886 90.8009 203.886 90.1877V88.7977H202.496C201.883 88.7977 201.382 88.2968 201.382 87.6836C201.382 87.0703 201.883 86.5695 202.496 86.5695H203.886V85.1795C203.886 84.5663 204.387 84.0654 205 84.0654C205.613 84.0654 206.114 84.5663 206.114 85.1795V86.5695H207.504C208.117 86.5695 208.618 87.0703 208.618 87.6836C208.608 88.3071 208.117 88.7977 207.504 88.7977Z" fill="black"/>
</g>
<g clip-path="url(#clip1)">
<path d="M293.918 73.0564C293.877 72.5762 294.153 72.147 294.633 71.9835C295.114 71.8201 295.584 72.0653 295.829 72.4638C295.87 72.5046 298.925 78.063 303.492 78.7374C303.216 73.3323 299.119 69 294.082 69C288.881 69 284.242 73.6184 284.702 80.362C294.358 78.6557 293.918 73.0871 293.918 73.0564Z" fill="black"/>
<path d="M295.471 75.5904C294.593 77.9302 292.1 81.1079 285.1 82.3442C286.296 86.4722 289.872 89.4966 294.041 89.4966C298.772 89.4966 302.665 85.7263 303.339 80.7605C299.763 80.3211 297.014 77.6237 295.471 75.5904Z" fill="black"/>
<path d="M303.216 90.4877C300.754 92.756 297.576 94.1047 294.082 94.1047C290.587 94.1047 287.369 92.7151 284.906 90.4468C279.777 92.2757 276.323 96.0869 276.323 102.483V114.325C287.287 120.558 300.713 120.558 311.677 114.325V102.524C311.677 96.138 308.305 92.3575 303.216 90.4877ZM286.337 105.027H285.458V105.906C285.458 106.672 284.835 107.296 284.068 107.296C283.302 107.296 282.679 106.672 282.679 105.906V105.027H281.8C281.034 105.027 280.411 104.404 280.411 103.638C280.411 102.871 281.034 102.248 281.8 102.248H282.679V101.369C282.679 100.603 283.302 99.9798 284.068 99.9798C284.835 99.9798 285.458 100.603 285.458 101.369V102.248H286.337C287.103 102.248 287.726 102.871 287.726 103.638C287.726 104.414 287.103 105.027 286.337 105.027Z" fill="black"/>
</g>
<g clip-path="url(#clip2)">
<path d="M391.94 112.735C391.389 112.735 390.95 113.173 390.95 113.724C390.95 115.551 389.44 117.051 387.624 117.051C385.807 117.051 384.297 115.541 384.297 113.724V95.7245H406.379C406.379 83.3163 396.583 73.2041 384.297 72.6837C384.297 72.6837 384.297 72.6837 384.297 72.6429V69.9898C384.338 69.4388 383.899 69 383.348 69C382.797 69 382.358 69.4388 382.358 69.9898V72.6837C382.358 72.6837 382.358 72.6837 382.358 72.7245C370.052 73.2449 360.256 83.3571 360.256 95.7653H382.338V113.724C382.338 116.622 384.715 119 387.613 119C390.511 119 392.889 116.622 392.889 113.724C392.889 113.173 392.46 112.735 391.94 112.735ZM376.552 84.1633C376.552 83.2959 377.256 82.602 378.113 82.602H381.787V78.9694C381.787 78.102 382.491 77.4082 383.348 77.4082C384.215 77.4082 384.909 78.1122 384.909 78.9694V82.6327H388.572C389.44 82.6327 390.134 83.3367 390.134 84.1939C390.134 85.0612 389.43 85.7551 388.572 85.7551H384.868V89.4184C384.868 90.2857 384.164 90.9796 383.307 90.9796C382.44 90.9796 381.746 90.2755 381.746 89.4184V85.7347H378.113C377.256 85.7347 376.552 85.0306 376.552 84.1633Z" fill="black"/>
</g>
<g clip-path="url(#clip3)">
<path d="M38.2906 18.1849H17.7095C17.1571 18.1849 16.6764 18.6248 16.6764 19.2181C16.6764 19.7705 17.1162 20.2512 17.7095 20.2512H38.3315C38.8839 20.2512 39.3646 19.8114 39.3646 19.2181C39.3237 18.6248 38.8839 18.1849 38.2906 18.1849Z" fill="black"/>
<path d="M38.2906 24.0258H17.7095C17.1571 24.0258 16.6764 24.4656 16.6764 25.0589C16.6764 25.6113 17.1162 26.092 17.7095 26.092H38.3315C38.8839 26.092 39.3646 25.6522 39.3646 25.0589C39.3237 24.4656 38.8839 24.0258 38.2906 24.0258Z" fill="black"/>
<path d="M38.2906 29.8666H17.7095C17.1571 29.8666 16.6764 30.3064 16.6764 30.8997C16.6764 31.4521 17.1162 31.9329 17.7095 31.9329H38.3315C38.8839 31.9329 39.3646 31.493 39.3646 30.8997C39.3237 30.3474 38.8839 29.8666 38.2906 29.8666Z" fill="black"/>
<path d="M39.3237 36.7406C39.3237 36.1882 38.8839 35.7074 38.2906 35.7074H17.7095C17.1571 35.7074 16.6764 36.1473 16.6764 36.7406C16.6764 37.293 17.1162 37.7737 17.7095 37.7737H38.3315C38.8839 37.7737 39.3237 37.293 39.3237 36.7406Z" fill="black"/>
<path d="M23.2332 40.9959C22.6809 40.9959 22.2001 41.4357 22.2001 42.029C22.2001 42.5814 22.64 43.0622 23.2332 43.0622H32.7668C33.3192 43.0622 33.8 42.6223 33.8 42.029C33.8 41.4767 33.3601 40.9959 32.7668 40.9959H23.2332Z" fill="black"/>
<path d="M34.7104 9.44922L37.8098 12.5487H41.5844V47.113H14.4157V12.5487H18.1903L21.2897 9.44922H10.365V51H45.6351V9.44922H34.7104Z" fill="black"/>
<path d="M23.5913 10.0016L19.7349 13.858H36.2243L32.4088 10.0425C31.8155 9.44921 31.6519 8.4979 32.0508 7.78186C32.5316 6.91238 32.7259 5.90992 32.5623 4.84609C32.2451 2.82072 30.5778 1.26589 28.5524 1.03062C25.7701 0.713514 23.3867 2.90255 23.3867 5.60305C23.3867 6.40092 23.5811 7.11696 23.8982 7.75117C24.3073 8.45698 24.2255 9.40829 23.5913 10.0016Z" fill="black"/>
</g>
<path d="M140.784 9.88972H97.2156V41.5149H140.774V9.88972H140.784ZM137.885 38.6055H100.115V12.8195H137.885V38.6055Z" fill="black"/>
<path d="M126.575 45.0775V46.3433H111.425V45.0775H94L95.3985 50.1102H142.601L144 45.0775H126.575Z" fill="black"/>
<path d="M118.98 34.3691H119.02C120.082 34.3691 120.94 33.5116 120.94 32.4499V27.6317H125.717C126.779 27.6317 127.636 26.7742 127.636 25.7125C127.636 24.6508 126.779 23.7934 125.717 23.7934H120.94V18.9751C120.94 17.9134 120.082 17.0559 119.02 17.0559H118.98C117.918 17.0559 117.06 17.9134 117.06 18.9751V23.7729H112.273C111.211 23.7729 110.354 24.6304 110.354 25.6921C110.354 26.7537 111.211 27.6112 112.273 27.6112H117.05V32.4295C117.06 33.5014 117.918 34.3691 118.98 34.3691Z" fill="black"/>
<g clip-path="url(#clip4)">
<path d="M213.084 1H185.35V50.7173H224.255V12.4045L213.084 1ZM218.575 43.4525H191.04C190.503 43.4525 190.035 43.0162 190.035 42.4277C190.035 41.8798 190.463 41.4029 191.04 41.4029H218.535C219.072 41.4029 219.54 41.8392 219.54 42.4277C219.54 43.0162 219.122 43.4525 218.575 43.4525ZM218.575 34.7773H191.04C190.503 34.7773 190.035 34.341 190.035 33.7526C190.035 33.2046 190.463 32.7278 191.04 32.7278H218.535C219.072 32.7278 219.54 33.1641 219.54 33.7526C219.54 34.3005 219.122 34.7773 218.575 34.7773ZM218.575 24.6309H212.696L211.432 26.1935C210.935 26.8124 209.95 26.6298 209.711 25.8587L207.742 19.7404L205.265 29.1258C204.797 30.2723 203.624 29.9781 203.365 29.1664L201.356 22.5814C201.356 22.5814 200.45 24.6715 199.495 24.6715H191.03C190.493 24.6715 190.025 24.2352 190.025 23.6467C190.025 23.0988 190.453 22.622 191.03 22.622H198.958L200.848 19.6694C201.306 18.949 202.38 19.1012 202.629 19.923L204.26 25.2296L206.707 15.9152C207.215 14.6063 208.508 15.3064 208.607 15.8746L211.084 23.4844C211.084 23.4844 211.83 22.3277 212.288 22.6118H218.595C219.132 22.6118 219.599 23.0481 219.599 23.6366C219.599 24.2251 219.122 24.6309 218.575 24.6309ZM211.074 14.4135V3.01913L222.295 14.4237H211.074V14.4135Z" fill="black"/>
</g>
<path d="M313.738 22.6118H275.482C274.493 22.6118 273.657 23.244 273.341 24.1616L266.122 47.3884C265.684 48.8158 266.755 50.2841 268.264 50.2841H306.519C307.508 50.2841 308.344 49.6519 308.661 48.7343L315.92 25.5381C316.308 24.0801 315.237 22.6118 313.738 22.6118ZM300.932 38.946H293.479V46.3994H288.482V38.946H281.029V33.9499H288.482V26.4966H293.479V33.9499H300.932V38.946Z" fill="black"/>
<path d="M271.435 23.5703C271.985 21.7859 273.616 20.593 275.482 20.593H308.905V17.9318C308.905 16.6981 307.916 15.7091 306.682 15.7091H288.482C286.933 15.7091 285.668 14.4447 285.668 12.8949C285.668 11.3451 284.394 10.091 282.854 10.091H268.223C266.999 10.091 266 11.1208 266 12.3443V40.8935L271.435 23.5703Z" fill="black"/>
<g clip-path="url(#clip5)">
<path d="M357.683 47.3061C357.683 48.8163 358.876 50 360.376 50H404.978C406.489 50 407.672 48.8061 407.672 47.3061V20.4388H357.683V47.3061ZM378.101 32.8163H380.621V30.2959C380.621 29.1633 381.54 28.2551 382.662 28.2551H382.703C383.836 28.2551 384.744 29.1735 384.744 30.2959V32.8163H387.264C388.397 32.8163 389.305 33.7347 389.305 34.8571C389.305 35.9898 388.387 36.898 387.264 36.898H384.744V39.4184C384.744 40.551 383.825 41.4592 382.703 41.4592H382.662C381.529 41.4592 380.621 40.5408 380.621 39.4184V36.898H378.101C376.968 36.898 376.06 35.9796 376.06 34.8571C376.06 33.7347 376.968 32.8163 378.101 32.8163Z" fill="black"/>
<path d="M404.989 7.58163H393.632L392.009 0.795918C391.887 0.316327 391.489 0 391.019 0H374.305C373.825 0 373.427 0.316327 373.315 0.795918L371.693 7.62245H360.376C358.876 7.62245 357.683 8.80612 357.683 10.3163V15.4796H407.683V10.3163C407.683 8.80612 406.489 7.58163 404.989 7.58163ZM373.836 7.58163L375.142 2.03061H390.223L391.529 7.58163H373.836Z" fill="black"/>
<path d="M403.009 3.61223H397.489V5.56121H403.009V3.61223Z" fill="black"/>
<path d="M367.887 3.61223H362.366V5.56121H367.887V3.61223Z" fill="black"/>
</g>
<defs>
<clipPath id="clip0">
<rect width="50" height="50" fill="white" transform="translate(180 69)"/>
</clipPath>
<clipPath id="clip1">
<rect width="50" height="50" fill="white" transform="translate(269 69)"/>
</clipPath>
<clipPath id="clip2">
<rect width="50" height="50" fill="white" transform="translate(358.317 69)"/>
</clipPath>
<clipPath id="clip3">
<rect width="50" height="50" fill="white" transform="translate(3 1)"/>
</clipPath>
<clipPath id="clip4">
<rect width="39.6825" height="50" fill="white" transform="translate(185 1)"/>
</clipPath>
<clipPath id="clip5">
<rect width="50" height="51" fill="white" transform="translate(357.683)"/>
</clipPath>
</defs>
</svg>
