<svg width="36" height="36" viewBox="0 0 36 36" fill="none" xmlns="http://www.w3.org/2000/svg">
<g clip-path="url(#clip0)">
<path d="M17.7476 0.721436C8.09801 0.721436 0.247559 8.57189 0.247559 18.2214C0.247559 27.871 8.09801 35.7214 17.7476 35.7214C27.3971 35.7214 35.2476 27.871 35.2476 18.2214C35.2476 8.57189 27.3971 0.721436 17.7476 0.721436ZM17.7476 33.7192C9.20212 33.7192 2.24977 26.7669 2.24977 18.2214C2.24977 9.67599 9.20212 2.72365 17.7476 2.72365C26.293 2.72365 33.2453 9.67599 33.2453 18.2214C33.2453 26.7669 26.293 33.7192 17.7476 33.7192Z" fill="black"/>
<path d="M24.1205 9.65625H11.3749C10.2095 9.65625 9.26141 10.6043 9.26141 11.7697V24.6728C9.26141 25.8382 10.2095 26.7863 11.3749 26.7863H24.1205C25.2859 26.7863 26.2339 25.8382 26.2339 24.6728V11.7697C26.2339 10.6044 25.2859 9.65625 24.1205 9.65625ZM24.2317 24.6728C24.2317 24.7342 24.1819 24.7841 24.1205 24.7841H11.3749C11.3135 24.7841 11.2636 24.7342 11.2636 24.6728V11.7697C11.2636 11.7083 11.3135 11.6585 11.3749 11.6585H24.1205C24.1819 11.6585 24.2317 11.7083 24.2317 11.7697V24.6728Z" fill="black"/>
<path d="M22.9613 13.1587H20.6682V15.2622H22.9613V13.1587Z" fill="black"/>
<path d="M17.7477 21.3298C18.9962 21.3298 20.0084 20.3176 20.0084 19.0691C20.0084 17.8205 18.9962 16.8083 17.7477 16.8083C16.4991 16.8083 15.4869 17.8205 15.4869 19.0691C15.4869 20.3176 16.4991 21.3298 17.7477 21.3298Z" fill="black"/>
<path d="M21.3535 19.0592C21.3535 21.0507 19.739 22.6652 17.7475 22.6652C15.756 22.6652 14.1415 21.0507 14.1415 19.0592L14.1464 17.4524H12.5339V23.4324H22.9613V17.4524H21.3618L21.3535 19.0592Z" fill="black"/>
</g>
<defs>
<clipPath id="clip0">
<rect width="35" height="35" fill="white" transform="translate(0.247559 0.721436)"/>
</clipPath>
</defs>
</svg>
