<svg width="148" height="72" viewBox="0 0 148 72" fill="none" xmlns="http://www.w3.org/2000/svg">
<rect x="0.125" y="0.125" width="147.75" height="71.25" stroke="black" stroke-width="0.25"/>
<path d="M85.208 55.448C85.336 55.448 85.452 55.5 85.556 55.604L86.468 56.6C85.764 57.416 84.908 58.052 83.9 58.508C82.9 58.964 81.692 59.192 80.276 59.192C79.036 59.192 77.912 58.98 76.904 58.556C75.896 58.124 75.036 57.524 74.324 56.756C73.612 55.98 73.06 55.052 72.668 53.972C72.276 52.892 72.08 51.704 72.08 50.408C72.08 49.112 72.288 47.924 72.704 46.844C73.128 45.764 73.72 44.836 74.48 44.06C75.24 43.284 76.148 42.684 77.204 42.26C78.268 41.828 79.44 41.612 80.72 41.612C81.984 41.612 83.072 41.808 83.984 42.2C84.904 42.592 85.72 43.124 86.432 43.796L85.676 44.864C85.62 44.944 85.556 45.012 85.484 45.068C85.412 45.116 85.308 45.14 85.172 45.14C85.068 45.14 84.956 45.104 84.836 45.032C84.724 44.952 84.588 44.856 84.428 44.744C84.268 44.632 84.08 44.512 83.864 44.384C83.648 44.256 83.392 44.136 83.096 44.024C82.8 43.912 82.456 43.82 82.064 43.748C81.672 43.668 81.22 43.628 80.708 43.628C79.788 43.628 78.944 43.788 78.176 44.108C77.416 44.42 76.76 44.868 76.208 45.452C75.656 46.036 75.224 46.748 74.912 47.588C74.608 48.428 74.456 49.368 74.456 50.408C74.456 51.48 74.608 52.436 74.912 53.276C75.224 54.116 75.644 54.828 76.172 55.412C76.708 55.988 77.34 56.428 78.068 56.732C78.796 57.036 79.58 57.188 80.42 57.188C80.932 57.188 81.392 57.16 81.8 57.104C82.208 57.04 82.584 56.944 82.928 56.816C83.28 56.688 83.604 56.528 83.9 56.336C84.204 56.136 84.508 55.9 84.812 55.628C84.948 55.508 85.08 55.448 85.208 55.448ZM91.5577 41.324V59H89.4217V41.324H91.5577ZM100.242 46.652C101.13 46.652 101.93 46.8 102.642 47.096C103.362 47.392 103.97 47.812 104.466 48.356C104.97 48.9 105.354 49.56 105.618 50.336C105.89 51.104 106.026 51.964 106.026 52.916C106.026 53.876 105.89 54.74 105.618 55.508C105.354 56.276 104.97 56.932 104.466 57.476C103.97 58.02 103.362 58.44 102.642 58.736C101.93 59.024 101.13 59.168 100.242 59.168C99.3543 59.168 98.5503 59.024 97.8303 58.736C97.1183 58.44 96.5103 58.02 96.0063 57.476C95.5023 56.932 95.1143 56.276 94.8423 55.508C94.5703 54.74 94.4343 53.876 94.4343 52.916C94.4343 51.964 94.5703 51.104 94.8423 50.336C95.1143 49.56 95.5023 48.9 96.0063 48.356C96.5103 47.812 97.1183 47.392 97.8303 47.096C98.5503 46.8 99.3543 46.652 100.242 46.652ZM100.242 57.5C101.442 57.5 102.338 57.1 102.93 56.3C103.522 55.492 103.818 54.368 103.818 52.928C103.818 51.48 103.522 50.352 102.93 49.544C102.338 48.736 101.442 48.332 100.242 48.332C99.6343 48.332 99.1063 48.436 98.6583 48.644C98.2103 48.852 97.8343 49.152 97.5303 49.544C97.2343 49.936 97.0103 50.42 96.8583 50.996C96.7143 51.564 96.6423 52.208 96.6423 52.928C96.6423 53.648 96.7143 54.292 96.8583 54.86C97.0103 55.428 97.2343 55.908 97.5303 56.3C97.8343 56.684 98.2103 56.98 98.6583 57.188C99.1063 57.396 99.6343 57.5 100.242 57.5ZM110.506 46.844V54.596C110.506 55.516 110.718 56.228 111.142 56.732C111.566 57.236 112.206 57.488 113.062 57.488C113.686 57.488 114.274 57.34 114.826 57.044C115.378 56.748 115.886 56.336 116.35 55.808V46.844H118.486V59H117.214C116.91 59 116.718 58.852 116.638 58.556L116.47 57.248C115.942 57.832 115.35 58.304 114.694 58.664C114.038 59.016 113.286 59.192 112.438 59.192C111.774 59.192 111.186 59.084 110.674 58.868C110.17 58.644 109.746 58.332 109.402 57.932C109.058 57.532 108.798 57.048 108.622 56.48C108.454 55.912 108.37 55.284 108.37 54.596V46.844H110.506ZM130.55 59C130.246 59 130.054 58.852 129.974 58.556L129.782 57.08C129.262 57.712 128.666 58.22 127.994 58.604C127.33 58.98 126.566 59.168 125.702 59.168C125.006 59.168 124.374 59.036 123.806 58.772C123.238 58.5 122.754 58.104 122.354 57.584C121.954 57.064 121.646 56.416 121.43 55.64C121.214 54.864 121.106 53.972 121.106 52.964C121.106 52.068 121.226 51.236 121.466 50.468C121.706 49.692 122.05 49.02 122.498 48.452C122.954 47.884 123.506 47.44 124.154 47.12C124.802 46.792 125.538 46.628 126.362 46.628C127.106 46.628 127.742 46.756 128.27 47.012C128.798 47.26 129.27 47.612 129.686 48.068V41.324H131.822V59H130.55ZM126.41 57.44C127.106 57.44 127.714 57.28 128.234 56.96C128.762 56.64 129.246 56.188 129.686 55.604V49.724C129.294 49.196 128.862 48.828 128.39 48.62C127.926 48.404 127.41 48.296 126.842 48.296C125.706 48.296 124.834 48.7 124.226 49.508C123.618 50.316 123.314 51.468 123.314 52.964C123.314 53.756 123.382 54.436 123.518 55.004C123.654 55.564 123.854 56.028 124.118 56.396C124.382 56.756 124.706 57.02 125.09 57.188C125.474 57.356 125.914 57.44 126.41 57.44Z" fill="black"/>
<path d="M29.208 29.448C29.336 29.448 29.452 29.5 29.556 29.604L30.468 30.6C29.764 31.416 28.908 32.052 27.9 32.508C26.9 32.964 25.692 33.192 24.276 33.192C23.036 33.192 21.912 32.98 20.904 32.556C19.896 32.124 19.036 31.524 18.324 30.756C17.612 29.98 17.06 29.052 16.668 27.972C16.276 26.892 16.08 25.704 16.08 24.408C16.08 23.112 16.288 21.924 16.704 20.844C17.128 19.764 17.72 18.836 18.48 18.06C19.24 17.284 20.148 16.684 21.204 16.26C22.268 15.828 23.44 15.612 24.72 15.612C25.984 15.612 27.072 15.808 27.984 16.2C28.904 16.592 29.72 17.124 30.432 17.796L29.676 18.864C29.62 18.944 29.556 19.012 29.484 19.068C29.412 19.116 29.308 19.14 29.172 19.14C29.068 19.14 28.956 19.104 28.836 19.032C28.724 18.952 28.588 18.856 28.428 18.744C28.268 18.632 28.08 18.512 27.864 18.384C27.648 18.256 27.392 18.136 27.096 18.024C26.8 17.912 26.456 17.82 26.064 17.748C25.672 17.668 25.22 17.628 24.708 17.628C23.788 17.628 22.944 17.788 22.176 18.108C21.416 18.42 20.76 18.868 20.208 19.452C19.656 20.036 19.224 20.748 18.912 21.588C18.608 22.428 18.456 23.368 18.456 24.408C18.456 25.48 18.608 26.436 18.912 27.276C19.224 28.116 19.644 28.828 20.172 29.412C20.708 29.988 21.34 30.428 22.068 30.732C22.796 31.036 23.58 31.188 24.42 31.188C24.932 31.188 25.392 31.16 25.8 31.104C26.208 31.04 26.584 30.944 26.928 30.816C27.28 30.688 27.604 30.528 27.9 30.336C28.204 30.136 28.508 29.9 28.812 29.628C28.948 29.508 29.08 29.448 29.208 29.448ZM42.1097 33H41.1617C40.9537 33 40.7857 32.968 40.6577 32.904C40.5297 32.84 40.4457 32.704 40.4057 32.496L40.1657 31.368C39.8457 31.656 39.5337 31.916 39.2297 32.148C38.9257 32.372 38.6057 32.564 38.2697 32.724C37.9337 32.876 37.5737 32.992 37.1897 33.072C36.8137 33.152 36.3937 33.192 35.9297 33.192C35.4577 33.192 35.0137 33.128 34.5977 33C34.1897 32.864 33.8337 32.664 33.5297 32.4C33.2257 32.136 32.9817 31.804 32.7977 31.404C32.6217 30.996 32.5337 30.516 32.5337 29.964C32.5337 29.484 32.6657 29.024 32.9297 28.584C33.1937 28.136 33.6177 27.74 34.2017 27.396C34.7937 27.052 35.5657 26.772 36.5177 26.556C37.4697 26.332 38.6337 26.204 40.0097 26.172V25.224C40.0097 24.28 39.8057 23.568 39.3977 23.088C38.9977 22.6 38.4017 22.356 37.6097 22.356C37.0897 22.356 36.6497 22.424 36.2897 22.56C35.9377 22.688 35.6297 22.836 35.3657 23.004C35.1097 23.164 34.8857 23.312 34.6937 23.448C34.5097 23.576 34.3257 23.64 34.1417 23.64C33.9977 23.64 33.8697 23.604 33.7577 23.532C33.6537 23.452 33.5697 23.356 33.5057 23.244L33.1217 22.56C33.7937 21.912 34.5177 21.428 35.2937 21.108C36.0697 20.788 36.9297 20.628 37.8737 20.628C38.5537 20.628 39.1577 20.74 39.6857 20.964C40.2137 21.188 40.6577 21.5 41.0177 21.9C41.3777 22.3 41.6497 22.784 41.8337 23.352C42.0177 23.92 42.1097 24.544 42.1097 25.224V33ZM36.5657 31.692C36.9417 31.692 37.2857 31.656 37.5977 31.584C37.9097 31.504 38.2017 31.396 38.4737 31.26C38.7537 31.116 39.0177 30.944 39.2657 30.744C39.5217 30.544 39.7697 30.316 40.0097 30.06V27.528C39.0257 27.56 38.1897 27.64 37.5017 27.768C36.8137 27.888 36.2537 28.048 35.8217 28.248C35.3897 28.448 35.0737 28.684 34.8737 28.956C34.6817 29.228 34.5857 29.532 34.5857 29.868C34.5857 30.188 34.6377 30.464 34.7417 30.696C34.8457 30.928 34.9857 31.12 35.1617 31.272C35.3377 31.416 35.5457 31.524 35.7857 31.596C36.0257 31.66 36.2857 31.692 36.5657 31.692ZM45.3458 33V20.844H46.5698C46.8018 20.844 46.9618 20.888 47.0498 20.976C47.1378 21.064 47.1978 21.216 47.2298 21.432L47.3738 23.328C47.7898 22.48 48.3018 21.82 48.9098 21.348C49.5258 20.868 50.2458 20.628 51.0698 20.628C51.4058 20.628 51.7098 20.668 51.9818 20.748C52.2538 20.82 52.5058 20.924 52.7378 21.06L52.4618 22.656C52.4058 22.856 52.2818 22.956 52.0898 22.956C51.9778 22.956 51.8058 22.92 51.5738 22.848C51.3418 22.768 51.0178 22.728 50.6018 22.728C49.8578 22.728 49.2338 22.944 48.7298 23.376C48.2338 23.808 47.8178 24.436 47.4818 25.26V33H45.3458ZM59.8374 20.652C60.5654 20.652 61.2374 20.776 61.8534 21.024C62.4694 21.264 63.0014 21.616 63.4494 22.08C63.8974 22.536 64.2454 23.104 64.4934 23.784C64.7494 24.456 64.8774 25.224 64.8774 26.088C64.8774 26.424 64.8414 26.648 64.7694 26.76C64.6974 26.872 64.5614 26.928 64.3614 26.928H56.2734C56.2894 27.696 56.3934 28.364 56.5854 28.932C56.7774 29.5 57.0414 29.976 57.3774 30.36C57.7134 30.736 58.1134 31.02 58.5774 31.212C59.0414 31.396 59.5614 31.488 60.1374 31.488C60.6734 31.488 61.1334 31.428 61.5174 31.308C61.9094 31.18 62.2454 31.044 62.5254 30.9C62.8054 30.756 63.0374 30.624 63.2214 30.504C63.4134 30.376 63.5774 30.312 63.7134 30.312C63.8894 30.312 64.0254 30.38 64.1214 30.516L64.7214 31.296C64.4574 31.616 64.1414 31.896 63.7734 32.136C63.4054 32.368 63.0094 32.56 62.5854 32.712C62.1694 32.864 61.7374 32.976 61.2894 33.048C60.8414 33.128 60.3974 33.168 59.9574 33.168C59.1174 33.168 58.3414 33.028 57.6294 32.748C56.9254 32.46 56.3134 32.044 55.7934 31.5C55.2814 30.948 54.8814 30.268 54.5934 29.46C54.3054 28.652 54.1614 27.724 54.1614 26.676C54.1614 25.828 54.2894 25.036 54.5454 24.3C54.8094 23.564 55.1854 22.928 55.6734 22.392C56.1614 21.848 56.7574 21.424 57.4614 21.12C58.1654 20.808 58.9574 20.652 59.8374 20.652ZM59.8854 22.224C58.8534 22.224 58.0414 22.524 57.4494 23.124C56.8574 23.716 56.4894 24.54 56.3454 25.596H62.9574C62.9574 25.1 62.8894 24.648 62.7534 24.24C62.6174 23.824 62.4174 23.468 62.1534 23.172C61.8894 22.868 61.5654 22.636 61.1814 22.476C60.8054 22.308 60.3734 22.224 59.8854 22.224Z" fill="black"/>
<path d="M15 37.4788H59.5847L65 61L70 18L74.2034 37.4788H133" stroke="#1C3097" stroke-width="2"/>
</svg>
