<svg width="162" height="89" viewBox="0 0 162 89" fill="none" xmlns="http://www.w3.org/2000/svg">
<line x1="13.25" y1="17" x2="13.25" y2="88" stroke="#BDBDBD" stroke-width="0.5"/>
<line x1="137.25" y1="18" x2="137.25" y2="89" stroke="#BDBDBD" stroke-width="0.5"/>
<line x1="1" y1="28.75" x2="149" y2="28.75" stroke="#BDBDBD" stroke-width="0.5"/>
<line x1="0.998474" y1="76.25" x2="148.998" y2="76.25" stroke="#BDBDBD" stroke-width="0.5"/>
<rect x="1.125" y="17.125" width="147.75" height="71.25" stroke="black" stroke-width="0.25"/>
<path d="M137.579 46.252H139.273V40.8785C139.273 40.7172 139.278 40.554 139.289 40.389L137.881 41.5935C137.844 41.6228 137.808 41.6448 137.771 41.6595C137.734 41.6705 137.7 41.676 137.667 41.676C137.612 41.676 137.562 41.665 137.518 41.643C137.474 41.6173 137.441 41.588 137.419 41.555L137.111 41.1315L139.454 39.102H140.252V46.252H141.803V47H137.579V46.252ZM145.686 39.0305C146.02 39.0305 146.332 39.08 146.621 39.179C146.911 39.278 147.16 39.4228 147.369 39.6135C147.582 39.8005 147.749 40.0297 147.87 40.301C147.991 40.5723 148.051 40.8803 148.051 41.225C148.051 41.5183 148.007 41.7897 147.919 42.039C147.831 42.2883 147.712 42.5285 147.562 42.7595C147.412 42.9868 147.237 43.2087 147.039 43.425C146.845 43.6377 146.638 43.8558 146.418 44.0795L144.344 46.2025C144.491 46.1622 144.64 46.131 144.79 46.109C144.94 46.0833 145.085 46.0705 145.224 46.0705H147.864C147.971 46.0705 148.055 46.1017 148.117 46.164C148.18 46.2263 148.211 46.307 148.211 46.406V47H142.953V46.6645C142.953 46.5948 142.966 46.5233 142.991 46.45C143.021 46.3767 143.067 46.3088 143.129 46.2465L145.653 43.711C145.862 43.4983 146.053 43.2948 146.225 43.1005C146.398 42.9025 146.544 42.7045 146.665 42.5065C146.79 42.3085 146.885 42.1087 146.951 41.907C147.017 41.7017 147.05 41.4835 147.05 41.2525C147.05 41.0215 147.014 40.8198 146.94 40.6475C146.867 40.4715 146.766 40.3267 146.638 40.213C146.51 40.0993 146.359 40.015 146.187 39.96C146.015 39.9013 145.829 39.872 145.631 39.872C145.433 39.872 145.25 39.9013 145.081 39.96C144.913 40.0187 144.762 40.1012 144.63 40.2075C144.502 40.3102 144.392 40.433 144.3 40.576C144.212 40.719 144.15 40.8767 144.113 41.049C144.084 41.1553 144.04 41.2323 143.981 41.28C143.923 41.3277 143.846 41.3515 143.75 41.3515C143.732 41.3515 143.712 41.3515 143.69 41.3515C143.672 41.3478 143.65 41.3442 143.624 41.3405L143.112 41.2525C143.164 40.8932 143.263 40.576 143.409 40.301C143.556 40.0223 143.741 39.7895 143.965 39.6025C144.192 39.4155 144.451 39.2743 144.74 39.179C145.034 39.08 145.349 39.0305 145.686 39.0305ZM149.565 48.8865V41.4285H150.148C150.287 41.4285 150.375 41.4963 150.412 41.632L150.494 42.292C150.733 42.0023 151.004 41.7695 151.308 41.5935C151.616 41.4175 151.97 41.3295 152.37 41.3295C152.689 41.3295 152.978 41.3918 153.239 41.5165C153.499 41.6375 153.721 41.819 153.904 42.061C154.088 42.2993 154.229 42.5963 154.328 42.952C154.427 43.3077 154.476 43.7165 154.476 44.1785C154.476 44.5892 154.421 44.9723 154.311 45.328C154.201 45.68 154.044 45.9862 153.838 46.2465C153.633 46.5032 153.38 46.7067 153.079 46.857C152.782 47.0037 152.447 47.077 152.073 47.077C151.728 47.077 151.433 47.0202 151.187 46.9065C150.945 46.7928 150.731 46.6315 150.544 46.4225V48.8865H149.565ZM152.045 42.1215C151.726 42.1215 151.446 42.1948 151.204 42.3415C150.965 42.4882 150.745 42.6953 150.544 42.963V45.658C150.723 45.9 150.92 46.0705 151.132 46.1695C151.349 46.2685 151.589 46.318 151.853 46.318C152.37 46.318 152.768 46.1328 153.046 45.7625C153.325 45.3922 153.464 44.8642 153.464 44.1785C153.464 43.8155 153.431 43.5038 153.365 43.2435C153.303 42.9832 153.211 42.7705 153.09 42.6055C152.969 42.4368 152.821 42.314 152.645 42.237C152.469 42.16 152.269 42.1215 152.045 42.1215ZM156.605 44.1455L154.729 41.4285H155.67C155.75 41.4285 155.809 41.4413 155.846 41.467C155.882 41.4927 155.915 41.5293 155.945 41.577L157.309 43.667C157.342 43.5643 157.389 43.4617 157.452 43.359L158.651 41.599C158.687 41.5477 158.724 41.5073 158.761 41.478C158.797 41.445 158.843 41.4285 158.898 41.4285H159.8L157.925 44.0905L159.877 47H158.937C158.856 47 158.792 46.9798 158.744 46.9395C158.7 46.8955 158.663 46.8478 158.634 46.7965L157.232 44.613C157.206 44.7193 157.167 44.8147 157.116 44.899L155.818 46.7965C155.781 46.8478 155.741 46.8955 155.697 46.9395C155.657 46.9798 155.6 47 155.527 47H154.652L156.605 44.1455Z" fill="black"/>
<path d="M85.252 24.4215V22.7275H79.8785C79.7172 22.7275 79.554 22.722 79.389 22.711L80.5935 24.119C80.6228 24.1557 80.6448 24.1923 80.6595 24.229C80.6705 24.2657 80.676 24.3005 80.676 24.3335C80.676 24.3885 80.665 24.438 80.643 24.482C80.6173 24.526 80.588 24.559 80.555 24.581L80.1315 24.889L78.102 22.546V21.7485H85.252V20.1975H86V24.4215H85.252ZM78.0305 16.3136C78.0305 15.98 78.08 15.6683 78.179 15.3786C78.278 15.089 78.4228 14.8396 78.6135 14.6306C78.8005 14.418 79.0297 14.2511 79.301 14.1301C79.5723 14.0091 79.8803 13.9486 80.225 13.9486C80.5183 13.9486 80.7897 13.9926 81.039 14.0806C81.2883 14.1686 81.5285 14.2878 81.7595 14.4381C81.9868 14.5885 82.2087 14.7626 82.425 14.9606C82.6377 15.155 82.8558 15.3621 83.0795 15.5821L85.2025 17.6556C85.1622 17.509 85.131 17.3605 85.109 17.2101C85.0833 17.0598 85.0705 16.915 85.0705 16.7756V14.1356C85.0705 14.0293 85.1017 13.945 85.164 13.8826C85.2263 13.8203 85.307 13.7891 85.406 13.7891H86V19.0471H85.6645C85.5948 19.0471 85.5233 19.0343 85.45 19.0086C85.3767 18.9793 85.3088 18.9335 85.2465 18.8711L82.711 16.3466C82.4983 16.1376 82.2948 15.947 82.1005 15.7746C81.9025 15.6023 81.7045 15.4556 81.5065 15.3346C81.3085 15.21 81.1087 15.1146 80.907 15.0486C80.7017 14.9826 80.4835 14.9496 80.2525 14.9496C80.0215 14.9496 79.8198 14.9863 79.6475 15.0596C79.4715 15.133 79.3267 15.2338 79.213 15.3621C79.0993 15.4905 79.015 15.6408 78.96 15.8131C78.9013 15.9855 78.872 16.1706 78.872 16.3686C78.872 16.5666 78.9013 16.75 78.96 16.9186C79.0187 17.0873 79.1012 17.2376 79.2075 17.3696C79.3102 17.498 79.433 17.608 79.576 17.6996C79.719 17.7876 79.8767 17.85 80.049 17.8866C80.1553 17.916 80.2323 17.96 80.28 18.0186C80.3277 18.0773 80.3515 18.1543 80.3515 18.2496C80.3515 18.268 80.3515 18.2881 80.3515 18.3101C80.3478 18.3285 80.3442 18.3505 80.3405 18.3761L80.2525 18.8876C79.8932 18.8363 79.576 18.7373 79.301 18.5906C79.0223 18.444 78.7895 18.2588 78.6025 18.0351C78.4155 17.8078 78.2743 17.5493 78.179 17.2596C78.08 16.9663 78.0305 16.651 78.0305 16.3136ZM87.8865 12.4353L80.4285 12.4353V11.8523C80.4285 11.7129 80.4963 11.6249 80.632 11.5883L81.292 11.5058C81.0023 11.2674 80.7695 10.9961 80.5935 10.6918C80.4175 10.3838 80.3295 10.0299 80.3295 9.63028C80.3295 9.31128 80.3918 9.02161 80.5165 8.76128C80.6375 8.50095 80.819 8.27911 81.061 8.09578C81.2993 7.91245 81.5963 7.77128 81.952 7.67228C82.3077 7.57328 82.7165 7.52378 83.1785 7.52378C83.5892 7.52378 83.9723 7.57878 84.328 7.68878C84.68 7.79878 84.9862 7.95645 85.2465 8.16178C85.5032 8.36711 85.7067 8.62011 85.857 8.92078C86.0037 9.21778 86.077 9.55328 86.077 9.92728C86.077 10.2719 86.0202 10.5671 85.9065 10.8128C85.7928 11.0548 85.6315 11.2693 85.4225 11.4563H87.8865V12.4353ZM81.1215 9.95478C81.1215 10.2738 81.1948 10.5543 81.3415 10.7963C81.4882 11.0346 81.6953 11.2546 81.963 11.4563L84.658 11.4563C84.9 11.2766 85.0705 11.0804 85.1695 10.8678C85.2685 10.6514 85.318 10.4113 85.318 10.1473C85.318 9.63028 85.1328 9.23245 84.7625 8.95378C84.3922 8.67511 83.8642 8.53578 83.1785 8.53578C82.8155 8.53578 82.5038 8.56878 82.2435 8.63478C81.9832 8.69711 81.7705 8.78878 81.6055 8.90978C81.4368 9.03078 81.314 9.17928 81.237 9.35528C81.16 9.53128 81.1215 9.73111 81.1215 9.95478ZM83.1455 5.39545L80.4285 7.27095V6.33045C80.4285 6.24979 80.4413 6.19112 80.467 6.15445C80.4927 6.11779 80.5293 6.08479 80.577 6.05545L82.667 4.69145C82.5643 4.65845 82.4617 4.61079 82.359 4.54845L80.599 3.34945C80.5477 3.31279 80.5073 3.27612 80.478 3.23945C80.445 3.20279 80.4285 3.15695 80.4285 3.10195V2.19995L83.0905 4.07545L86 2.12295V3.06345C86 3.14412 85.9798 3.20829 85.9395 3.25595C85.8955 3.29995 85.8478 3.33662 85.7965 3.36595L83.613 4.76845C83.7193 4.79412 83.8147 4.83262 83.899 4.88395L85.7965 6.18195C85.8478 6.21862 85.8955 6.25895 85.9395 6.30295C85.9798 6.34329 86 6.40012 86 6.47345V7.34795L83.1455 5.39545Z" fill="black"/>
<path d="M86.208 69.448C86.336 69.448 86.452 69.5 86.556 69.604L87.468 70.6C86.764 71.416 85.908 72.052 84.9 72.508C83.9 72.964 82.692 73.192 81.276 73.192C80.036 73.192 78.912 72.98 77.904 72.556C76.896 72.124 76.036 71.524 75.324 70.756C74.612 69.98 74.06 69.052 73.668 67.972C73.276 66.892 73.08 65.704 73.08 64.408C73.08 63.112 73.288 61.924 73.704 60.844C74.128 59.764 74.72 58.836 75.48 58.06C76.24 57.284 77.148 56.684 78.204 56.26C79.268 55.828 80.44 55.612 81.72 55.612C82.984 55.612 84.072 55.808 84.984 56.2C85.904 56.592 86.72 57.124 87.432 57.796L86.676 58.864C86.62 58.944 86.556 59.012 86.484 59.068C86.412 59.116 86.308 59.14 86.172 59.14C86.068 59.14 85.956 59.104 85.836 59.032C85.724 58.952 85.588 58.856 85.428 58.744C85.268 58.632 85.08 58.512 84.864 58.384C84.648 58.256 84.392 58.136 84.096 58.024C83.8 57.912 83.456 57.82 83.064 57.748C82.672 57.668 82.22 57.628 81.708 57.628C80.788 57.628 79.944 57.788 79.176 58.108C78.416 58.42 77.76 58.868 77.208 59.452C76.656 60.036 76.224 60.748 75.912 61.588C75.608 62.428 75.456 63.368 75.456 64.408C75.456 65.48 75.608 66.436 75.912 67.276C76.224 68.116 76.644 68.828 77.172 69.412C77.708 69.988 78.34 70.428 79.068 70.732C79.796 71.036 80.58 71.188 81.42 71.188C81.932 71.188 82.392 71.16 82.8 71.104C83.208 71.04 83.584 70.944 83.928 70.816C84.28 70.688 84.604 70.528 84.9 70.336C85.204 70.136 85.508 69.9 85.812 69.628C85.948 69.508 86.08 69.448 86.208 69.448ZM92.5577 55.324V73H90.4217V55.324H92.5577ZM101.242 60.652C102.13 60.652 102.93 60.8 103.642 61.096C104.362 61.392 104.97 61.812 105.466 62.356C105.97 62.9 106.354 63.56 106.618 64.336C106.89 65.104 107.026 65.964 107.026 66.916C107.026 67.876 106.89 68.74 106.618 69.508C106.354 70.276 105.97 70.932 105.466 71.476C104.97 72.02 104.362 72.44 103.642 72.736C102.93 73.024 102.13 73.168 101.242 73.168C100.354 73.168 99.5503 73.024 98.8303 72.736C98.1183 72.44 97.5103 72.02 97.0063 71.476C96.5023 70.932 96.1143 70.276 95.8423 69.508C95.5703 68.74 95.4343 67.876 95.4343 66.916C95.4343 65.964 95.5703 65.104 95.8423 64.336C96.1143 63.56 96.5023 62.9 97.0063 62.356C97.5103 61.812 98.1183 61.392 98.8303 61.096C99.5503 60.8 100.354 60.652 101.242 60.652ZM101.242 71.5C102.442 71.5 103.338 71.1 103.93 70.3C104.522 69.492 104.818 68.368 104.818 66.928C104.818 65.48 104.522 64.352 103.93 63.544C103.338 62.736 102.442 62.332 101.242 62.332C100.634 62.332 100.106 62.436 99.6583 62.644C99.2103 62.852 98.8343 63.152 98.5303 63.544C98.2343 63.936 98.0103 64.42 97.8583 64.996C97.7143 65.564 97.6423 66.208 97.6423 66.928C97.6423 67.648 97.7143 68.292 97.8583 68.86C98.0103 69.428 98.2343 69.908 98.5303 70.3C98.8343 70.684 99.2103 70.98 99.6583 71.188C100.106 71.396 100.634 71.5 101.242 71.5ZM111.506 60.844V68.596C111.506 69.516 111.718 70.228 112.142 70.732C112.566 71.236 113.206 71.488 114.062 71.488C114.686 71.488 115.274 71.34 115.826 71.044C116.378 70.748 116.886 70.336 117.35 69.808V60.844H119.486V73H118.214C117.91 73 117.718 72.852 117.638 72.556L117.47 71.248C116.942 71.832 116.35 72.304 115.694 72.664C115.038 73.016 114.286 73.192 113.438 73.192C112.774 73.192 112.186 73.084 111.674 72.868C111.17 72.644 110.746 72.332 110.402 71.932C110.058 71.532 109.798 71.048 109.622 70.48C109.454 69.912 109.37 69.284 109.37 68.596V60.844H111.506ZM131.55 73C131.246 73 131.054 72.852 130.974 72.556L130.782 71.08C130.262 71.712 129.666 72.22 128.994 72.604C128.33 72.98 127.566 73.168 126.702 73.168C126.006 73.168 125.374 73.036 124.806 72.772C124.238 72.5 123.754 72.104 123.354 71.584C122.954 71.064 122.646 70.416 122.43 69.64C122.214 68.864 122.106 67.972 122.106 66.964C122.106 66.068 122.226 65.236 122.466 64.468C122.706 63.692 123.05 63.02 123.498 62.452C123.954 61.884 124.506 61.44 125.154 61.12C125.802 60.792 126.538 60.628 127.362 60.628C128.106 60.628 128.742 60.756 129.27 61.012C129.798 61.26 130.27 61.612 130.686 62.068V55.324H132.822V73H131.55ZM127.41 71.44C128.106 71.44 128.714 71.28 129.234 70.96C129.762 70.64 130.246 70.188 130.686 69.604V63.724C130.294 63.196 129.862 62.828 129.39 62.62C128.926 62.404 128.41 62.296 127.842 62.296C126.706 62.296 125.834 62.7 125.226 63.508C124.618 64.316 124.314 65.468 124.314 66.964C124.314 67.756 124.382 68.436 124.518 69.004C124.654 69.564 124.854 70.028 125.118 70.396C125.382 70.756 125.706 71.02 126.09 71.188C126.474 71.356 126.914 71.44 127.41 71.44Z" fill="black"/>
<path d="M30.208 43.448C30.336 43.448 30.452 43.5 30.556 43.604L31.468 44.6C30.764 45.416 29.908 46.052 28.9 46.508C27.9 46.964 26.692 47.192 25.276 47.192C24.036 47.192 22.912 46.98 21.904 46.556C20.896 46.124 20.036 45.524 19.324 44.756C18.612 43.98 18.06 43.052 17.668 41.972C17.276 40.892 17.08 39.704 17.08 38.408C17.08 37.112 17.288 35.924 17.704 34.844C18.128 33.764 18.72 32.836 19.48 32.06C20.24 31.284 21.148 30.684 22.204 30.26C23.268 29.828 24.44 29.612 25.72 29.612C26.984 29.612 28.072 29.808 28.984 30.2C29.904 30.592 30.72 31.124 31.432 31.796L30.676 32.864C30.62 32.944 30.556 33.012 30.484 33.068C30.412 33.116 30.308 33.14 30.172 33.14C30.068 33.14 29.956 33.104 29.836 33.032C29.724 32.952 29.588 32.856 29.428 32.744C29.268 32.632 29.08 32.512 28.864 32.384C28.648 32.256 28.392 32.136 28.096 32.024C27.8 31.912 27.456 31.82 27.064 31.748C26.672 31.668 26.22 31.628 25.708 31.628C24.788 31.628 23.944 31.788 23.176 32.108C22.416 32.42 21.76 32.868 21.208 33.452C20.656 34.036 20.224 34.748 19.912 35.588C19.608 36.428 19.456 37.368 19.456 38.408C19.456 39.48 19.608 40.436 19.912 41.276C20.224 42.116 20.644 42.828 21.172 43.412C21.708 43.988 22.34 44.428 23.068 44.732C23.796 45.036 24.58 45.188 25.42 45.188C25.932 45.188 26.392 45.16 26.8 45.104C27.208 45.04 27.584 44.944 27.928 44.816C28.28 44.688 28.604 44.528 28.9 44.336C29.204 44.136 29.508 43.9 29.812 43.628C29.948 43.508 30.08 43.448 30.208 43.448ZM43.1097 47H42.1617C41.9537 47 41.7857 46.968 41.6577 46.904C41.5297 46.84 41.4457 46.704 41.4057 46.496L41.1657 45.368C40.8457 45.656 40.5337 45.916 40.2297 46.148C39.9257 46.372 39.6057 46.564 39.2697 46.724C38.9337 46.876 38.5737 46.992 38.1897 47.072C37.8137 47.152 37.3937 47.192 36.9297 47.192C36.4577 47.192 36.0137 47.128 35.5977 47C35.1897 46.864 34.8337 46.664 34.5297 46.4C34.2257 46.136 33.9817 45.804 33.7977 45.404C33.6217 44.996 33.5337 44.516 33.5337 43.964C33.5337 43.484 33.6657 43.024 33.9297 42.584C34.1937 42.136 34.6177 41.74 35.2017 41.396C35.7937 41.052 36.5657 40.772 37.5177 40.556C38.4697 40.332 39.6337 40.204 41.0097 40.172V39.224C41.0097 38.28 40.8057 37.568 40.3977 37.088C39.9977 36.6 39.4017 36.356 38.6097 36.356C38.0897 36.356 37.6497 36.424 37.2897 36.56C36.9377 36.688 36.6297 36.836 36.3657 37.004C36.1097 37.164 35.8857 37.312 35.6937 37.448C35.5097 37.576 35.3257 37.64 35.1417 37.64C34.9977 37.64 34.8697 37.604 34.7577 37.532C34.6537 37.452 34.5697 37.356 34.5057 37.244L34.1217 36.56C34.7937 35.912 35.5177 35.428 36.2937 35.108C37.0697 34.788 37.9297 34.628 38.8737 34.628C39.5537 34.628 40.1577 34.74 40.6857 34.964C41.2137 35.188 41.6577 35.5 42.0177 35.9C42.3777 36.3 42.6497 36.784 42.8337 37.352C43.0177 37.92 43.1097 38.544 43.1097 39.224V47ZM37.5657 45.692C37.9417 45.692 38.2857 45.656 38.5977 45.584C38.9097 45.504 39.2017 45.396 39.4737 45.26C39.7537 45.116 40.0177 44.944 40.2657 44.744C40.5217 44.544 40.7697 44.316 41.0097 44.06V41.528C40.0257 41.56 39.1897 41.64 38.5017 41.768C37.8137 41.888 37.2537 42.048 36.8217 42.248C36.3897 42.448 36.0737 42.684 35.8737 42.956C35.6817 43.228 35.5857 43.532 35.5857 43.868C35.5857 44.188 35.6377 44.464 35.7417 44.696C35.8457 44.928 35.9857 45.12 36.1617 45.272C36.3377 45.416 36.5457 45.524 36.7857 45.596C37.0257 45.66 37.2857 45.692 37.5657 45.692ZM46.3458 47V34.844H47.5698C47.8018 34.844 47.9618 34.888 48.0498 34.976C48.1378 35.064 48.1978 35.216 48.2298 35.432L48.3738 37.328C48.7898 36.48 49.3018 35.82 49.9098 35.348C50.5258 34.868 51.2458 34.628 52.0698 34.628C52.4058 34.628 52.7098 34.668 52.9818 34.748C53.2538 34.82 53.5058 34.924 53.7378 35.06L53.4618 36.656C53.4058 36.856 53.2818 36.956 53.0898 36.956C52.9778 36.956 52.8058 36.92 52.5738 36.848C52.3418 36.768 52.0178 36.728 51.6018 36.728C50.8578 36.728 50.2338 36.944 49.7298 37.376C49.2338 37.808 48.8178 38.436 48.4818 39.26V47H46.3458ZM60.8374 34.652C61.5654 34.652 62.2374 34.776 62.8534 35.024C63.4694 35.264 64.0014 35.616 64.4494 36.08C64.8974 36.536 65.2454 37.104 65.4934 37.784C65.7494 38.456 65.8774 39.224 65.8774 40.088C65.8774 40.424 65.8414 40.648 65.7694 40.76C65.6974 40.872 65.5614 40.928 65.3614 40.928H57.2734C57.2894 41.696 57.3934 42.364 57.5854 42.932C57.7774 43.5 58.0414 43.976 58.3774 44.36C58.7134 44.736 59.1134 45.02 59.5774 45.212C60.0414 45.396 60.5614 45.488 61.1374 45.488C61.6734 45.488 62.1334 45.428 62.5174 45.308C62.9094 45.18 63.2454 45.044 63.5254 44.9C63.8054 44.756 64.0374 44.624 64.2214 44.504C64.4134 44.376 64.5774 44.312 64.7134 44.312C64.8894 44.312 65.0254 44.38 65.1214 44.516L65.7214 45.296C65.4574 45.616 65.1414 45.896 64.7734 46.136C64.4054 46.368 64.0094 46.56 63.5854 46.712C63.1694 46.864 62.7374 46.976 62.2894 47.048C61.8414 47.128 61.3974 47.168 60.9574 47.168C60.1174 47.168 59.3414 47.028 58.6294 46.748C57.9254 46.46 57.3134 46.044 56.7934 45.5C56.2814 44.948 55.8814 44.268 55.5934 43.46C55.3054 42.652 55.1614 41.724 55.1614 40.676C55.1614 39.828 55.2894 39.036 55.5454 38.3C55.8094 37.564 56.1854 36.928 56.6734 36.392C57.1614 35.848 57.7574 35.424 58.4614 35.12C59.1654 34.808 59.9574 34.652 60.8374 34.652ZM60.8854 36.224C59.8534 36.224 59.0414 36.524 58.4494 37.124C57.8574 37.716 57.4894 38.54 57.3454 39.596H63.9574C63.9574 39.1 63.8894 38.648 63.7534 38.24C63.6174 37.824 63.4174 37.468 63.1534 37.172C62.8894 36.868 62.5654 36.636 62.1814 36.476C61.8054 36.308 61.3734 36.224 60.8854 36.224Z" fill="black"/>
<path d="M16 51.4788H60.5847L66 75L71 32L75.2034 51.4788H134" stroke="#1C3097" stroke-width="2"/>
</svg>
