<svg width="148" height="72" viewBox="0 0 148 72" fill="none" xmlns="http://www.w3.org/2000/svg">
<rect x="0.125" y="0.125" width="147.75" height="71.25" fill="black" stroke="black" stroke-width="0.25"/>
<path d="M84.208 54.448C84.336 54.448 84.452 54.5 84.556 54.604L85.468 55.6C84.764 56.416 83.908 57.052 82.9 57.508C81.9 57.964 80.692 58.192 79.276 58.192C78.036 58.192 76.912 57.98 75.904 57.556C74.896 57.124 74.036 56.524 73.324 55.756C72.612 54.98 72.06 54.052 71.668 52.972C71.276 51.892 71.08 50.704 71.08 49.408C71.08 48.112 71.288 46.924 71.704 45.844C72.128 44.764 72.72 43.836 73.48 43.06C74.24 42.284 75.148 41.684 76.204 41.26C77.268 40.828 78.44 40.612 79.72 40.612C80.984 40.612 82.072 40.808 82.984 41.2C83.904 41.592 84.72 42.124 85.432 42.796L84.676 43.864C84.62 43.944 84.556 44.012 84.484 44.068C84.412 44.116 84.308 44.14 84.172 44.14C84.068 44.14 83.956 44.104 83.836 44.032C83.724 43.952 83.588 43.856 83.428 43.744C83.268 43.632 83.08 43.512 82.864 43.384C82.648 43.256 82.392 43.136 82.096 43.024C81.8 42.912 81.456 42.82 81.064 42.748C80.672 42.668 80.22 42.628 79.708 42.628C78.788 42.628 77.944 42.788 77.176 43.108C76.416 43.42 75.76 43.868 75.208 44.452C74.656 45.036 74.224 45.748 73.912 46.588C73.608 47.428 73.456 48.368 73.456 49.408C73.456 50.48 73.608 51.436 73.912 52.276C74.224 53.116 74.644 53.828 75.172 54.412C75.708 54.988 76.34 55.428 77.068 55.732C77.796 56.036 78.58 56.188 79.42 56.188C79.932 56.188 80.392 56.16 80.8 56.104C81.208 56.04 81.584 55.944 81.928 55.816C82.28 55.688 82.604 55.528 82.9 55.336C83.204 55.136 83.508 54.9 83.812 54.628C83.948 54.508 84.08 54.448 84.208 54.448ZM90.5577 40.324V58H88.4217V40.324H90.5577ZM99.2423 45.652C100.13 45.652 100.93 45.8 101.642 46.096C102.362 46.392 102.97 46.812 103.466 47.356C103.97 47.9 104.354 48.56 104.618 49.336C104.89 50.104 105.026 50.964 105.026 51.916C105.026 52.876 104.89 53.74 104.618 54.508C104.354 55.276 103.97 55.932 103.466 56.476C102.97 57.02 102.362 57.44 101.642 57.736C100.93 58.024 100.13 58.168 99.2423 58.168C98.3543 58.168 97.5503 58.024 96.8303 57.736C96.1183 57.44 95.5103 57.02 95.0063 56.476C94.5023 55.932 94.1143 55.276 93.8423 54.508C93.5703 53.74 93.4343 52.876 93.4343 51.916C93.4343 50.964 93.5703 50.104 93.8423 49.336C94.1143 48.56 94.5023 47.9 95.0063 47.356C95.5103 46.812 96.1183 46.392 96.8303 46.096C97.5503 45.8 98.3543 45.652 99.2423 45.652ZM99.2423 56.5C100.442 56.5 101.338 56.1 101.93 55.3C102.522 54.492 102.818 53.368 102.818 51.928C102.818 50.48 102.522 49.352 101.93 48.544C101.338 47.736 100.442 47.332 99.2423 47.332C98.6343 47.332 98.1063 47.436 97.6583 47.644C97.2103 47.852 96.8343 48.152 96.5303 48.544C96.2343 48.936 96.0103 49.42 95.8583 49.996C95.7143 50.564 95.6423 51.208 95.6423 51.928C95.6423 52.648 95.7143 53.292 95.8583 53.86C96.0103 54.428 96.2343 54.908 96.5303 55.3C96.8343 55.684 97.2103 55.98 97.6583 56.188C98.1063 56.396 98.6343 56.5 99.2423 56.5ZM109.506 45.844V53.596C109.506 54.516 109.718 55.228 110.142 55.732C110.566 56.236 111.206 56.488 112.062 56.488C112.686 56.488 113.274 56.34 113.826 56.044C114.378 55.748 114.886 55.336 115.35 54.808V45.844H117.486V58H116.214C115.91 58 115.718 57.852 115.638 57.556L115.47 56.248C114.942 56.832 114.35 57.304 113.694 57.664C113.038 58.016 112.286 58.192 111.438 58.192C110.774 58.192 110.186 58.084 109.674 57.868C109.17 57.644 108.746 57.332 108.402 56.932C108.058 56.532 107.798 56.048 107.622 55.48C107.454 54.912 107.37 54.284 107.37 53.596V45.844H109.506ZM129.55 58C129.246 58 129.054 57.852 128.974 57.556L128.782 56.08C128.262 56.712 127.666 57.22 126.994 57.604C126.33 57.98 125.566 58.168 124.702 58.168C124.006 58.168 123.374 58.036 122.806 57.772C122.238 57.5 121.754 57.104 121.354 56.584C120.954 56.064 120.646 55.416 120.43 54.64C120.214 53.864 120.106 52.972 120.106 51.964C120.106 51.068 120.226 50.236 120.466 49.468C120.706 48.692 121.05 48.02 121.498 47.452C121.954 46.884 122.506 46.44 123.154 46.12C123.802 45.792 124.538 45.628 125.362 45.628C126.106 45.628 126.742 45.756 127.27 46.012C127.798 46.26 128.27 46.612 128.686 47.068V40.324H130.822V58H129.55ZM125.41 56.44C126.106 56.44 126.714 56.28 127.234 55.96C127.762 55.64 128.246 55.188 128.686 54.604V48.724C128.294 48.196 127.862 47.828 127.39 47.62C126.926 47.404 126.41 47.296 125.842 47.296C124.706 47.296 123.834 47.7 123.226 48.508C122.618 49.316 122.314 50.468 122.314 51.964C122.314 52.756 122.382 53.436 122.518 54.004C122.654 54.564 122.854 55.028 123.118 55.396C123.382 55.756 123.706 56.02 124.09 56.188C124.474 56.356 124.914 56.44 125.41 56.44Z" fill="white"/>
<path d="M28.208 28.448C28.336 28.448 28.452 28.5 28.556 28.604L29.468 29.6C28.764 30.416 27.908 31.052 26.9 31.508C25.9 31.964 24.692 32.192 23.276 32.192C22.036 32.192 20.912 31.98 19.904 31.556C18.896 31.124 18.036 30.524 17.324 29.756C16.612 28.98 16.06 28.052 15.668 26.972C15.276 25.892 15.08 24.704 15.08 23.408C15.08 22.112 15.288 20.924 15.704 19.844C16.128 18.764 16.72 17.836 17.48 17.06C18.24 16.284 19.148 15.684 20.204 15.26C21.268 14.828 22.44 14.612 23.72 14.612C24.984 14.612 26.072 14.808 26.984 15.2C27.904 15.592 28.72 16.124 29.432 16.796L28.676 17.864C28.62 17.944 28.556 18.012 28.484 18.068C28.412 18.116 28.308 18.14 28.172 18.14C28.068 18.14 27.956 18.104 27.836 18.032C27.724 17.952 27.588 17.856 27.428 17.744C27.268 17.632 27.08 17.512 26.864 17.384C26.648 17.256 26.392 17.136 26.096 17.024C25.8 16.912 25.456 16.82 25.064 16.748C24.672 16.668 24.22 16.628 23.708 16.628C22.788 16.628 21.944 16.788 21.176 17.108C20.416 17.42 19.76 17.868 19.208 18.452C18.656 19.036 18.224 19.748 17.912 20.588C17.608 21.428 17.456 22.368 17.456 23.408C17.456 24.48 17.608 25.436 17.912 26.276C18.224 27.116 18.644 27.828 19.172 28.412C19.708 28.988 20.34 29.428 21.068 29.732C21.796 30.036 22.58 30.188 23.42 30.188C23.932 30.188 24.392 30.16 24.8 30.104C25.208 30.04 25.584 29.944 25.928 29.816C26.28 29.688 26.604 29.528 26.9 29.336C27.204 29.136 27.508 28.9 27.812 28.628C27.948 28.508 28.08 28.448 28.208 28.448ZM41.1097 32H40.1617C39.9537 32 39.7857 31.968 39.6577 31.904C39.5297 31.84 39.4457 31.704 39.4057 31.496L39.1657 30.368C38.8457 30.656 38.5337 30.916 38.2297 31.148C37.9257 31.372 37.6057 31.564 37.2697 31.724C36.9337 31.876 36.5737 31.992 36.1897 32.072C35.8137 32.152 35.3937 32.192 34.9297 32.192C34.4577 32.192 34.0137 32.128 33.5977 32C33.1897 31.864 32.8337 31.664 32.5297 31.4C32.2257 31.136 31.9817 30.804 31.7977 30.404C31.6217 29.996 31.5337 29.516 31.5337 28.964C31.5337 28.484 31.6657 28.024 31.9297 27.584C32.1937 27.136 32.6177 26.74 33.2017 26.396C33.7937 26.052 34.5657 25.772 35.5177 25.556C36.4697 25.332 37.6337 25.204 39.0097 25.172V24.224C39.0097 23.28 38.8057 22.568 38.3977 22.088C37.9977 21.6 37.4017 21.356 36.6097 21.356C36.0897 21.356 35.6497 21.424 35.2897 21.56C34.9377 21.688 34.6297 21.836 34.3657 22.004C34.1097 22.164 33.8857 22.312 33.6937 22.448C33.5097 22.576 33.3257 22.64 33.1417 22.64C32.9977 22.64 32.8697 22.604 32.7577 22.532C32.6537 22.452 32.5697 22.356 32.5057 22.244L32.1217 21.56C32.7937 20.912 33.5177 20.428 34.2937 20.108C35.0697 19.788 35.9297 19.628 36.8737 19.628C37.5537 19.628 38.1577 19.74 38.6857 19.964C39.2137 20.188 39.6577 20.5 40.0177 20.9C40.3777 21.3 40.6497 21.784 40.8337 22.352C41.0177 22.92 41.1097 23.544 41.1097 24.224V32ZM35.5657 30.692C35.9417 30.692 36.2857 30.656 36.5977 30.584C36.9097 30.504 37.2017 30.396 37.4737 30.26C37.7537 30.116 38.0177 29.944 38.2657 29.744C38.5217 29.544 38.7697 29.316 39.0097 29.06V26.528C38.0257 26.56 37.1897 26.64 36.5017 26.768C35.8137 26.888 35.2537 27.048 34.8217 27.248C34.3897 27.448 34.0737 27.684 33.8737 27.956C33.6817 28.228 33.5857 28.532 33.5857 28.868C33.5857 29.188 33.6377 29.464 33.7417 29.696C33.8457 29.928 33.9857 30.12 34.1617 30.272C34.3377 30.416 34.5457 30.524 34.7857 30.596C35.0257 30.66 35.2857 30.692 35.5657 30.692ZM44.3458 32V19.844H45.5698C45.8018 19.844 45.9618 19.888 46.0498 19.976C46.1378 20.064 46.1978 20.216 46.2298 20.432L46.3738 22.328C46.7898 21.48 47.3018 20.82 47.9098 20.348C48.5258 19.868 49.2458 19.628 50.0698 19.628C50.4058 19.628 50.7098 19.668 50.9818 19.748C51.2538 19.82 51.5058 19.924 51.7378 20.06L51.4618 21.656C51.4058 21.856 51.2818 21.956 51.0898 21.956C50.9778 21.956 50.8058 21.92 50.5738 21.848C50.3418 21.768 50.0178 21.728 49.6018 21.728C48.8578 21.728 48.2338 21.944 47.7298 22.376C47.2338 22.808 46.8178 23.436 46.4818 24.26V32H44.3458ZM58.8374 19.652C59.5654 19.652 60.2374 19.776 60.8534 20.024C61.4694 20.264 62.0014 20.616 62.4494 21.08C62.8974 21.536 63.2454 22.104 63.4934 22.784C63.7494 23.456 63.8774 24.224 63.8774 25.088C63.8774 25.424 63.8414 25.648 63.7694 25.76C63.6974 25.872 63.5614 25.928 63.3614 25.928H55.2734C55.2894 26.696 55.3934 27.364 55.5854 27.932C55.7774 28.5 56.0414 28.976 56.3774 29.36C56.7134 29.736 57.1134 30.02 57.5774 30.212C58.0414 30.396 58.5614 30.488 59.1374 30.488C59.6734 30.488 60.1334 30.428 60.5174 30.308C60.9094 30.18 61.2454 30.044 61.5254 29.9C61.8054 29.756 62.0374 29.624 62.2214 29.504C62.4134 29.376 62.5774 29.312 62.7134 29.312C62.8894 29.312 63.0254 29.38 63.1214 29.516L63.7214 30.296C63.4574 30.616 63.1414 30.896 62.7734 31.136C62.4054 31.368 62.0094 31.56 61.5854 31.712C61.1694 31.864 60.7374 31.976 60.2894 32.048C59.8414 32.128 59.3974 32.168 58.9574 32.168C58.1174 32.168 57.3414 32.028 56.6294 31.748C55.9254 31.46 55.3134 31.044 54.7934 30.5C54.2814 29.948 53.8814 29.268 53.5934 28.46C53.3054 27.652 53.1614 26.724 53.1614 25.676C53.1614 24.828 53.2894 24.036 53.5454 23.3C53.8094 22.564 54.1854 21.928 54.6734 21.392C55.1614 20.848 55.7574 20.424 56.4614 20.12C57.1654 19.808 57.9574 19.652 58.8374 19.652ZM58.8854 21.224C57.8534 21.224 57.0414 21.524 56.4494 22.124C55.8574 22.716 55.4894 23.54 55.3454 24.596H61.9574C61.9574 24.1 61.8894 23.648 61.7534 23.24C61.6174 22.824 61.4174 22.468 61.1534 22.172C60.8894 21.868 60.5654 21.636 60.1814 21.476C59.8054 21.308 59.3734 21.224 58.8854 21.224Z" fill="white"/>
<path d="M14 36.4788H58.5847L64 60L69 17L73.2034 36.4788H132" stroke="#4A67CF" stroke-width="2"/>
</svg>
