<svg width="340" height="159" viewBox="0 0 340 159" fill="none" xmlns="http://www.w3.org/2000/svg">
<g clip-path="url(#clip0)">
<rect width="340" height="159" fill="white"/>
<circle cx="304.808" cy="74.8076" r="29.8076" fill="#1A3E6D"/>
<path d="M305.613 54.6674L326.544 75.3709H284.683L305.613 54.6674Z" fill="#FF5E5B"/>
<rect x="292.187" y="75.1153" width="26.8537" height="17.3808" fill="#FF5E5B"/>
<path d="M298.358 95.1622C298.118 95.1622 297.914 95.0902 297.746 94.9462C297.602 94.7782 297.53 94.5742 297.53 94.3342V77.2702C297.53 77.0302 297.602 76.8382 297.746 76.6942C297.914 76.5262 298.118 76.4422 298.358 76.4422H299.906C300.17 76.4422 300.374 76.5142 300.518 76.6582C300.662 76.8022 300.734 77.0062 300.734 77.2702V78.8542C301.454 77.9662 302.282 77.2822 303.218 76.8022C304.178 76.3222 305.366 76.0822 306.782 76.0822C309.086 76.0822 310.874 76.8262 312.146 78.3142C313.418 79.7782 314.054 81.7222 314.054 84.1462V94.3342C314.054 94.5742 313.97 94.7782 313.802 94.9462C313.658 95.0902 313.466 95.1622 313.226 95.1622H311.57C311.33 95.1622 311.126 95.0902 310.958 94.9462C310.814 94.7782 310.742 94.5742 310.742 94.3342V84.3622C310.742 82.6342 310.322 81.2902 309.482 80.3302C308.642 79.3702 307.442 78.8902 305.882 78.8902C304.346 78.8902 303.122 79.3822 302.21 80.3662C301.298 81.3262 300.842 82.6582 300.842 84.3622V94.3342C300.842 94.5742 300.758 94.7782 300.59 94.9462C300.446 95.0902 300.254 95.1622 300.014 95.1622H298.358Z" fill="#1A3E6D"/>
<path d="M64.4101 50.2071C66.0969 51.333 67.1496 53.155 67.5657 55.5524C67.9823 57.953 67.7534 60.9004 66.9025 64.2096C65.2012 70.8265 61.0368 78.7988 54.7947 86.5403C48.5526 94.2817 41.4447 100.289 35.0183 103.752C31.8044 105.484 28.7832 106.568 26.1414 106.927C23.5031 107.286 21.2769 106.919 19.5901 105.793C17.9033 104.667 16.8505 102.845 16.4345 100.448C16.0178 98.047 16.2468 95.0996 17.0976 91.7904C18.799 85.1735 22.9634 77.2012 29.2055 69.4597C35.4476 61.7183 42.5555 55.7107 48.9818 52.2476C52.1957 50.5157 55.2169 49.4322 57.8588 49.0731C60.4971 48.7145 62.7233 49.0812 64.4101 50.2071Z" stroke="#0797ED"/>
<path d="M4.95766 70.7209C4.52195 72.5527 5.04847 74.5374 6.48529 76.5866C7.92257 78.6364 10.2434 80.7075 13.2953 82.6742C19.3963 86.6057 28.3296 90.0623 38.6486 92.0901C48.9677 94.1179 58.6741 94.324 66.017 93.0343C69.6901 92.3892 72.7449 91.3744 74.9854 90.0473C77.2252 88.7206 78.6066 87.1108 79.0423 85.279C79.478 83.4471 78.9515 81.4625 77.5147 79.4133C76.0774 77.3635 73.7566 75.2923 70.7047 73.3257C64.6036 69.3942 55.6704 65.9375 45.3514 63.9097C35.0323 61.882 25.3259 61.6759 17.983 62.9656C14.3099 63.6107 11.2551 64.6255 9.01459 65.9526C6.77481 67.2793 5.39338 68.889 4.95766 70.7209Z" stroke="#0797ED"/>
<ellipse cx="43.8406" cy="55.7694" rx="3.08281" ry="2.81522" fill="#0797ED"/>
<ellipse cx="11.4479" cy="81.1618" rx="2.64241" ry="2.41304" fill="#0797ED"/>
<ellipse cx="46.3613" cy="87.25" rx="16.2948" ry="14.8804" fill="#1A3E6D"/>
<path d="M46.8016 77.1956L58.2436 87.5312H35.3597L46.8016 77.1956Z" fill="#FF5E5B"/>
<rect x="39.4617" y="87.4036" width="14.68" height="8.67675" fill="#FF5E5B"/>
<path d="M42.6106 97.4199C42.4773 97.4199 42.364 97.3799 42.2706 97.2999C42.1906 97.2065 42.1506 97.0932 42.1506 96.9599V87.4799C42.1506 87.3465 42.1906 87.2399 42.2706 87.1599C42.364 87.0665 42.4773 87.0199 42.6106 87.0199H43.4706C43.6173 87.0199 43.7306 87.0599 43.8106 87.1399C43.8906 87.2199 43.9306 87.3332 43.9306 87.4799V88.3599C44.3306 87.8665 44.7906 87.4865 45.3106 87.2199C45.844 86.9532 46.504 86.8199 47.2906 86.8199C48.5706 86.8199 49.564 87.2332 50.2706 88.0599C50.9773 88.8732 51.3306 89.9532 51.3306 91.2999V96.9599C51.3306 97.0932 51.284 97.2065 51.1906 97.2999C51.1106 97.3799 51.004 97.4199 50.8706 97.4199H49.9506C49.8173 97.4199 49.704 97.3799 49.6106 97.2999C49.5306 97.2065 49.4906 97.0932 49.4906 96.9599V91.4199C49.4906 90.4599 49.2573 89.7132 48.7906 89.1799C48.324 88.6465 47.6573 88.3799 46.7906 88.3799C45.9373 88.3799 45.2573 88.6532 44.7506 89.1999C44.244 89.7332 43.9906 90.4732 43.9906 91.4199V96.9599C43.9906 97.0932 43.944 97.2065 43.8506 97.2999C43.7706 97.3799 43.664 97.4199 43.5306 97.4199H42.6106Z" fill="#1A3E6D"/>
<path d="M225.015 15.2478C229.037 18.032 231.501 22.5092 232.469 28.2915C233.437 34.077 232.9 41.1366 230.947 49.0149C227.04 64.7701 217.493 83.7054 203.215 102.068C188.937 120.432 172.66 134.708 157.904 142.954C150.526 147.077 143.55 149.68 137.41 150.545C131.274 151.41 126.008 150.536 121.986 147.752C117.963 144.968 115.499 140.491 114.531 134.708C113.563 128.923 114.1 121.863 116.054 113.985C119.96 98.2299 129.507 79.2946 143.785 60.9315C158.063 42.5684 174.341 28.2919 189.096 20.0463C196.474 15.9231 203.45 13.3203 209.59 12.4549C215.726 11.5899 220.992 12.4635 225.015 15.2478Z" stroke="#0797ED"/>
<path d="M88.3965 64.1577C87.3449 68.7423 88.6372 73.6273 91.9748 78.5635C95.3134 83.5011 100.675 88.4511 107.673 93.1274C121.666 102.479 142.116 110.677 165.705 115.484C189.294 120.291 211.511 120.787 228.353 117.719C236.775 116.185 243.827 113.765 249.031 110.568C254.234 107.372 257.552 103.427 258.603 98.8419C259.655 94.2573 258.363 89.3723 255.025 84.4362C251.687 79.4985 246.325 74.5485 239.327 69.8722C225.333 60.5211 204.884 52.3223 181.295 47.5154C157.706 42.7086 135.489 42.213 118.647 45.2805C110.225 46.8145 103.173 49.2349 97.9685 52.4317C92.7658 55.6275 89.448 59.5731 88.3965 64.1577Z" stroke="#0797ED"/>
<ellipse cx="177.697" cy="28.9277" rx="7.03031" ry="6.65761" fill="#0797ED"/>
<ellipse cx="103.827" cy="88.9774" rx="6.02598" ry="5.70652" fill="#0797ED"/>
<ellipse cx="183.446" cy="103.375" rx="37.1602" ry="35.1902" fill="#1A3E6D"/>
<path d="M184.45 79.5978L210.543 104.04H158.357L184.45 79.5978Z" fill="#FF5E5B"/>
<rect x="167.711" y="103.738" width="33.4777" height="20.5193" fill="#FF5E5B"/>
<path d="M175.127 127.493C174.807 127.493 174.535 127.397 174.311 127.205C174.119 126.981 174.023 126.709 174.023 126.389V103.637C174.023 103.317 174.119 103.061 174.311 102.869C174.535 102.645 174.807 102.533 175.127 102.533H177.191C177.543 102.533 177.815 102.629 178.007 102.821C178.199 103.013 178.295 103.285 178.295 103.637V105.749C179.255 104.565 180.359 103.653 181.607 103.013C182.887 102.373 184.471 102.053 186.359 102.053C189.431 102.053 191.815 103.045 193.511 105.029C195.207 106.981 196.055 109.573 196.055 112.805V126.389C196.055 126.709 195.943 126.981 195.719 127.205C195.527 127.397 195.271 127.493 194.951 127.493H192.743C192.423 127.493 192.151 127.397 191.927 127.205C191.735 126.981 191.639 126.709 191.639 126.389V113.093C191.639 110.789 191.079 108.997 189.959 107.717C188.839 106.437 187.239 105.797 185.159 105.797C183.111 105.797 181.479 106.453 180.263 107.765C179.047 109.045 178.439 110.821 178.439 113.093V126.389C178.439 126.709 178.327 126.981 178.103 127.205C177.911 127.397 177.655 127.493 177.335 127.493H175.127Z" fill="#1A3E6D"/>
</g>
<defs>
<clipPath id="clip0">
<rect width="340" height="159" fill="white"/>
</clipPath>
</defs>
</svg>
