<svg width="340" height="164" viewBox="0 0 340 164" fill="none" xmlns="http://www.w3.org/2000/svg">
<g clip-path="url(#clip0)">
<rect width="340" height="164" fill="white"/>
<path d="M175.25 15L175.25 161" stroke="#BDBDBD" stroke-width="0.5"/>
<line x1="315.25" y1="15" x2="315.25" y2="161" stroke="#BDBDBD" stroke-width="0.5"/>
<line x1="163" y1="26.75" x2="327" y2="26.75" stroke="#BDBDBD" stroke-width="0.5"/>
<path d="M163 150H327" stroke="#BDBDBD" stroke-width="0.5"/>
<path d="M163.125 15.125H326.875V160.875H163.125V15.125Z" stroke="black" stroke-width="0.25"/>
<path d="M316.228 56.3209C316.764 56.2489 317.232 56.0449 317.632 55.7089H318.4V63.2809H317.464V56.8369C317.064 57.0929 316.652 57.2329 316.228 57.2569V56.3209ZM321.329 62.4049H325.709V63.2809H320.381V62.1649C320.381 61.2769 320.717 60.6249 321.389 60.2089C321.605 60.0729 321.845 59.9529 322.109 59.8489L323.597 59.2489C324.365 58.9449 324.749 58.4449 324.749 57.7489C324.749 57.3649 324.617 57.0529 324.353 56.8129C324.089 56.5649 323.717 56.4409 323.237 56.4409C322.765 56.4409 322.377 56.5409 322.073 56.7409C321.777 56.9409 321.605 57.2409 321.557 57.6409H320.513C320.553 56.9849 320.817 56.4809 321.305 56.1289C321.793 55.7769 322.417 55.6009 323.177 55.6009C323.945 55.6009 324.569 55.8089 325.049 56.2249C325.529 56.6409 325.769 57.1569 325.769 57.7729C325.769 58.3809 325.609 58.8649 325.289 59.2249C324.977 59.5849 324.545 59.8729 323.993 60.0889L322.469 60.7009C322.085 60.8609 321.797 61.0449 321.605 61.2529C321.421 61.4529 321.329 61.7169 321.329 62.0449V62.4049ZM328.674 58.4209C329.05 57.7409 329.61 57.4009 330.354 57.4009C331.106 57.4009 331.73 57.6769 332.226 58.2289C332.73 58.7809 332.982 59.5089 332.982 60.4129C332.982 61.3169 332.73 62.0449 332.226 62.5969C331.722 63.1409 331.102 63.4129 330.366 63.4129C329.63 63.4129 329.086 63.1369 328.734 62.5849V66.1009H327.786V57.5449H328.566L328.674 58.4209ZM330.318 62.5729C330.766 62.5729 331.158 62.3809 331.494 61.9969C331.838 61.6129 332.01 61.0889 332.01 60.4249C332.01 59.7529 331.846 59.2209 331.518 58.8289C331.198 58.4369 330.806 58.2409 330.342 58.2409C329.878 58.2409 329.498 58.3889 329.202 58.6849C328.906 58.9729 328.75 59.3649 328.734 59.8609V60.9529C328.734 61.4569 328.886 61.8529 329.19 62.1409C329.494 62.4289 329.87 62.5729 330.318 62.5729ZM339.519 63.2809H338.367L336.723 61.1089L335.163 63.2809H334.011L336.183 60.4129L334.011 57.5329H335.163L336.807 59.6929L338.379 57.5329H339.531L337.335 60.4129L339.519 63.2809Z" fill="black"/>
<path d="M248.04 24.412C247.968 23.876 247.764 23.408 247.428 23.008V22.24L255 22.24V23.176L248.556 23.176C248.812 23.576 248.952 23.988 248.976 24.412H248.04ZM254.124 19.3113V14.9313H255V20.2593L253.884 20.2593C252.996 20.2593 252.344 19.9233 251.928 19.2513C251.792 19.0353 251.672 18.7953 251.568 18.5313L250.968 17.0433C250.664 16.2753 250.164 15.8913 249.468 15.8913C249.084 15.8913 248.772 16.0233 248.532 16.2873C248.284 16.5513 248.16 16.9233 248.16 17.4033C248.16 17.8753 248.26 18.2633 248.46 18.5673C248.66 18.8633 248.96 19.0353 249.36 19.0833V20.1273C248.704 20.0873 248.2 19.8233 247.848 19.3353C247.496 18.8473 247.32 18.2233 247.32 17.4633C247.32 16.6953 247.528 16.0713 247.944 15.5913C248.36 15.1113 248.876 14.8713 249.492 14.8713C250.1 14.8713 250.584 15.0313 250.944 15.3513C251.304 15.6633 251.592 16.0953 251.808 16.6473L252.42 18.1713C252.58 18.5553 252.764 18.8433 252.972 19.0353C253.172 19.2193 253.436 19.3113 253.764 19.3113H254.124ZM250.14 11.9664C249.46 11.5904 249.12 11.0304 249.12 10.2864C249.12 9.53441 249.396 8.91041 249.948 8.41441C250.5 7.91041 251.228 7.65841 252.132 7.65841C253.036 7.65841 253.764 7.91041 254.316 8.41441C254.86 8.91841 255.132 9.53841 255.132 10.2744C255.132 11.0104 254.856 11.5544 254.304 11.9064L257.82 11.9064V12.8544L249.264 12.8544V12.0744L250.14 11.9664ZM254.292 10.3224C254.292 9.87441 254.1 9.48241 253.716 9.14641C253.332 8.80241 252.808 8.63041 252.144 8.63041C251.472 8.63041 250.94 8.79441 250.548 9.12241C250.156 9.44241 249.96 9.83441 249.96 10.2984C249.96 10.7624 250.108 11.1424 250.404 11.4384C250.692 11.7344 251.084 11.8904 251.58 11.9064H252.672C253.176 11.9064 253.572 11.7544 253.86 11.4504C254.148 11.1464 254.292 10.7704 254.292 10.3224ZM255 1.12141V2.27341L252.828 3.91741L255 5.47741V6.62941L252.132 4.45741L249.252 6.62941V5.47741L251.412 3.83341L249.252 2.26141V1.10941L252.132 3.30541L255 1.12141Z" fill="black"/>
<path d="M286.272 33.0661C289.471 35.4047 291.439 39.1707 292.213 44.0536C292.987 48.9394 292.558 54.9077 290.993 61.5748C287.863 74.9072 280.21 90.9367 268.762 106.485C257.313 122.033 244.264 134.117 232.44 141.095C226.527 144.584 220.942 146.784 216.031 147.515C211.124 148.245 206.928 147.505 203.728 145.167C200.529 142.828 198.561 139.062 197.787 134.179C197.013 129.293 197.442 123.325 199.007 116.658C202.138 103.325 209.79 87.296 221.238 71.7479C232.687 56.1998 245.736 44.1152 257.56 37.1376C263.473 33.6483 269.059 31.4489 273.969 30.7181C278.876 29.9876 283.072 30.7275 286.272 33.0661Z" stroke="#0797ED"/>
<path d="M176.831 74.4473C175.991 78.3123 177.022 82.432 179.69 86.5988C182.36 90.768 186.65 94.952 192.256 98.9077C203.466 106.818 219.854 113.758 238.764 117.827C257.674 121.896 275.478 122.314 288.97 119.719C295.717 118.421 301.36 116.375 305.522 113.676C309.681 110.978 312.329 107.65 313.169 103.785C314.009 99.92 312.978 95.8003 310.31 91.6335C307.64 87.4643 303.35 83.2803 297.744 79.3246C286.534 71.4143 270.146 64.4748 251.236 60.4057C232.326 56.3366 214.522 55.9184 201.03 58.5133C194.283 59.8109 188.64 61.8573 184.478 64.5566C180.319 67.2543 177.671 70.5822 176.831 74.4473Z" stroke="#0797ED"/>
<circle cx="248.367" cy="44.5853" r="5.63928" fill="#0797ED"/>
<circle cx="189.112" cy="95.45" r="4.83367" fill="#0797ED"/>
<circle cx="252.978" cy="107.645" r="29.8076" fill="#1A3E6D"/>
<path d="M253.784 87.5051L274.714 108.209H232.853L253.784 87.5051Z" fill="#FF5E5B"/>
<rect x="240.357" y="107.953" width="26.8537" height="17.3808" fill="#FF5E5B"/>
<path d="M246.528 128C246.288 128 246.084 127.928 245.916 127.784C245.772 127.616 245.7 127.412 245.7 127.172V110.108C245.7 109.868 245.772 109.676 245.916 109.532C246.084 109.364 246.288 109.28 246.528 109.28H248.076C248.34 109.28 248.544 109.352 248.688 109.496C248.832 109.64 248.904 109.844 248.904 110.108V111.692C249.624 110.804 250.452 110.12 251.388 109.64C252.348 109.16 253.536 108.92 254.952 108.92C257.256 108.92 259.044 109.664 260.316 111.152C261.588 112.616 262.224 114.56 262.224 116.984V127.172C262.224 127.412 262.14 127.616 261.972 127.784C261.828 127.928 261.636 128 261.396 128H259.74C259.5 128 259.296 127.928 259.128 127.784C258.984 127.616 258.912 127.412 258.912 127.172V117.2C258.912 115.472 258.492 114.128 257.652 113.168C256.812 112.208 255.612 111.728 254.052 111.728C252.516 111.728 251.292 112.22 250.38 113.204C249.468 114.164 249.012 115.496 249.012 117.2V127.172C249.012 127.412 248.928 127.616 248.76 127.784C248.616 127.928 248.424 128 248.184 128H246.528Z" fill="#1A3E6D"/>
<path d="M114.272 30.0661C117.471 32.4047 119.439 36.1707 120.213 41.0536C120.987 45.9394 120.558 51.9077 118.993 58.5748C115.863 71.9072 108.21 87.9367 96.7618 103.485C85.3133 119.033 72.2642 131.117 60.4397 138.095C54.5267 141.584 48.9415 143.784 44.0315 144.515C39.1243 145.245 34.928 144.505 31.7285 142.167C28.529 139.828 26.5609 136.062 25.7871 131.179C25.0127 126.293 25.4417 120.325 27.0071 113.658C30.1376 100.325 37.7898 84.296 49.2383 68.7479C60.6868 53.1998 73.736 41.1152 85.5604 34.1376C91.4735 30.6483 97.0586 28.4489 101.969 27.7181C106.876 26.9876 111.072 27.7275 114.272 30.0661Z" stroke="#0797ED"/>
<path d="M4.83101 71.4473C3.9915 75.3123 5.02245 79.432 7.69048 83.5988C10.3601 87.768 14.6502 91.952 20.256 95.9077C31.4659 103.818 47.8542 110.758 66.7639 114.827C85.6737 118.896 103.478 119.314 116.97 116.719C123.717 115.421 129.36 113.375 133.522 110.676C137.681 107.978 140.329 104.65 141.169 100.785C142.009 96.92 140.978 92.8003 138.31 88.6335C135.64 84.4643 131.35 80.2803 125.744 76.3246C114.534 68.4143 98.1458 61.4748 79.2361 57.4057C60.3263 53.3366 42.5216 52.9184 29.0299 55.5133C22.2831 56.8109 16.6396 58.8573 12.4782 61.5566C8.31913 64.2543 5.67051 67.5822 4.83101 71.4473Z" stroke="#0797ED"/>
<circle cx="76.3668" cy="41.5853" r="5.63928" fill="#0797ED"/>
<circle cx="17.1122" cy="92.45" r="4.83367" fill="#0797ED"/>
<circle cx="80.9781" cy="104.645" r="29.8076" fill="#1A3E6D"/>
<path d="M81.7837 84.5051L102.714 105.209H60.8533L81.7837 84.5051Z" fill="#FF5E5B"/>
<rect x="68.3569" y="104.953" width="26.8537" height="17.3808" fill="#FF5E5B"/>
<path d="M74.528 125C74.288 125 74.084 124.928 73.916 124.784C73.772 124.616 73.7 124.412 73.7 124.172V107.108C73.7 106.868 73.772 106.676 73.916 106.532C74.084 106.364 74.288 106.28 74.528 106.28H76.076C76.34 106.28 76.544 106.352 76.688 106.496C76.832 106.64 76.904 106.844 76.904 107.108V108.692C77.624 107.804 78.452 107.12 79.388 106.64C80.348 106.16 81.536 105.92 82.952 105.92C85.256 105.92 87.044 106.664 88.316 108.152C89.588 109.616 90.224 111.56 90.224 113.984V124.172C90.224 124.412 90.14 124.616 89.972 124.784C89.828 124.928 89.636 125 89.396 125H87.74C87.5 125 87.296 124.928 87.128 124.784C86.984 124.616 86.912 124.412 86.912 124.172V114.2C86.912 112.472 86.492 111.128 85.652 110.168C84.812 109.208 83.612 108.728 82.052 108.728C80.516 108.728 79.292 109.22 78.38 110.204C77.468 111.164 77.012 112.496 77.012 114.2V124.172C77.012 124.412 76.928 124.616 76.76 124.784C76.616 124.928 76.424 125 76.184 125H74.528Z" fill="#1A3E6D"/>
</g>
<defs>
<clipPath id="clip0">
<rect width="340" height="164" fill="white"/>
</clipPath>
</defs>
</svg>
